# Rhino

mtllib book.mtl
g Pages
o 00_Pages
usemtl Pages
v 0.2045 0.03167 0.5388
v 0.2045 0.9619 0.5388
v 0.2045 0.03167 0.4612
v 0.2045 0.9619 0.4612
v 0.2122 0.03167 0.5
v 0.2122 0.9619 0.5
v 0.7955 0.03167 0.5388
v 0.7955 0.9619 0.5388
v 0.7955 0.03167 0.5
v 0.7955 0.9619 0.5
v 0.7955 0.03167 0.4612
v 0.7955 0.9619 0.4612
vt 0.1667 1
vt 0.6667 1
vt 0.1667 0
vt 1 1
vt 0 1
vt 0.8333 1
vt 0 0
vt 0.8333 1
vt 0.08333 1
vt 0.75 0.9868
vt 0.08333 1
vt 0.75 0.9868
vt 0.08333 0
vt 0.9167 0.9868
vt 0.08333 0
vt 0.9167 0.9868
vt 0.6667 0
vt 0.3333 1
vt 1 0
vt 0.3333 0
vt 0.75 0
vt 0.4167 1
vt 0.75 0
vt 0.4167 1
vt 0.9167 0
vt 0.4167 0
vt 0.9167 0
vt 0.4167 0
vt 0.8333 0
vt 0.5 1
vt 0.8333 0
vt 0.5 0
vn -0.9805 0 -0.1966
vn 0 -1 0
vn -0.9805 0 -0.1966
vn 0 1 0
vn -0.9805 0 0.1966
vn 0 -1 0
vn -0.9805 0 0.1966
vn 0 1 0
vn -0.9805 0 -0.1966
vn 0 -1 0
vn -0.9805 0 0.1966
vn 0 -1 0
vn -0.9805 0 -0.1966
vn 0 1 0
vn -0.9805 0 0.1966
vn 0 1 0
vn 0 -1 0
vn 1 0 0
vn 0 1 0
vn 1 0 0
vn 0 -1 0
vn 1 0 0
vn 0 -1 0
vn 1 0 0
vn 0 1 0
vn 1 0 0
vn 0 1 0
vn 1 0 0
vn 0 -1 0
vn 1 0 0
vn 0 1 0
vn 1 0 0
f 2/3/3 6/13/13 5/9/9 1/1/1
f 2/4/4 8/19/19 6/14/14
f 8/19/19 10/25/25 6/14/14
f 1/2/2 5/10/10 7/17/17
f 5/10/10 9/21/21 7/17/17
f 9/22/22 10/26/26 8/20/20 7/18/18
f 4/7/7 3/5/5 5/11/11 6/15/15
f 4/8/8 6/16/16 12/31/31
f 12/31/31 6/16/16 10/27/27
f 3/6/6 11/29/29 5/12/12
f 5/12/12 11/29/29 9/23/23
f 9/24/24 11/30/30 12/32/32 10/28/28
g Cover
o 01_Cover
usemtl Cover
v 0.1657 0.01228 0.5388
v 0.1657 0.9815 0.5388
v 0.1657 0.01228 0.4612
v 0.1657 0.9815 0.4612
v 0.1851 0.01228 0.5291
v 0.1851 0.9815 0.5291
v 0.1851 0.01228 0.4709
v 0.1851 0.9815 0.4709
v 0.2045 0.01228 0.5678
v 0.2045 0.9815 0.5678
v 0.2045 0.01228 0.5423
v 0.2045 0.9815 0.5423
v 0.2045 0.01228 0.4577
v 0.2045 0.9815 0.4577
v 0.2045 0.01228 0.4322
v 0.2045 0.9815 0.4322
v 0.2141 0.01228 0.5388
v 0.2141 0.9815 0.5388
v 0.2141 0.01228 0.4612
v 0.2141 0.9815 0.4612
v 0.2238 0.01228 0.5582
v 0.2238 0.9815 0.5582
v 0.2238 0.01228 0.4418
v 0.2238 0.9815 0.4418
v 0.8343 0.01228 0.5582
v 0.8343 0.9815 0.5582
v 0.8343 0.01228 0.5388
v 0.8343 0.9815 0.5388
v 0.8343 0.01228 0.4612
v 0.8343 0.9815 0.4612
v 0.8343 0.01228 0.4418
v 0.8343 0.9815 0.4418
vt 0.7619 1
vt 0.3892 1
vt 0.7619 1
vt 0.9715 1
vt 0.3892 0
vt 0.8382 1
vt 0.3333 1
vt 0.3333 1
vt 0.8952 1
vt 0.3333 0
vt 0.8952 1
vt 0.3333 0
vt 0.3333 1
vt 0.7714 0.971
vt 0.3333 0
vt 0.962 0.971
vt 0.3892 1
vt 0.8287 0.971
vt 0.3892 1
vt 0.3892 0
vt 0.9047 0.971
vt 0.3892 0
vt 0.7334 0.942
vt 0.4158 1
vt 0.4158 1
vt 1 0.942
vt 0.4158 0
vt 0.4158 0
vt 0.4158 1
vt 0.7584 0.942
vt 0.4158 1
vt 0.4158 0
vt 0.975 0.942
vt 0.4158 0
vt 0.3014 1
vt 0.8417 0.942
vt 0.3014 0
vt 0.8917 0.942
vt 0.8667 0.942
vt 0.3122 1
vt 0.3123 1
vt 0.8667 0.942
vt 0.3122 0
vt 0.3123 0
vt 0.4267 1
vt 0.7619 0.9276
vt 0.4267 0
vt 0.9715 0.9276
vt 0.02384 1
vt 0.8382 0.9276
vt 0.02384 1
vt 0.02384 0
vt 0.8952 0.9276
vt 0.02384 0
vt 0.7428 0.9131
vt 0.4267 1
vt 0.4267 1
vt 0.9906 0.9131
vt 0.4267 0
vt 0.4267 0
vt 0.8573 0.9131
vt 0.3014 1
vt 0.3014 1
vt 0.8761 0.9131
vt 0.3014 0
vt 0.3014 0
vt 0.7428 0
vt 4.998e-15 1
vt 0.7096 1
vt 0.9906 0
vt 6.592e-17 0
vt 0.7096 0
vt 0.7096 1
vt 0.7619 0
vt 0.02384 1
vt 0.7096 0
vt 0.9715 0
vt 0.02384 0
vt 0.3122 1
vt 0.8382 0
vt 0.7096 1
vt 0.3122 0
vt 0.8952 0
vt 0.7096 0
vt 0.8573 0
vt 0.7334 1
vt 0.02384 1
vt 0.8761 0
vt 0.7334 0
vt 0.02384 0
vn 0 -1 0
vn -0.8941 0 0.4479
vn 0 -1 0
vn 0 1 0
vn -0.8941 0 0.4479
vn 0 -1 0
vn -0.5987 0 -0.801
vn -1 0 0
vn 0 1 0
vn -0.5987 0 -0.801
vn 0 1 0
vn -1 0 0
vn 0.8843 0 -0.4669
vn 0 -1 0
vn 0.8843 0 -0.4669
vn 0 1 0
vn 1 0 0
vn 0 -1 0
vn 0.5641 0 0.8257
vn 1 0 0
vn 0 1 0
vn 0.5641 0 0.8257
vn 0 -1 0
vn 0.4454 0 0.8953
vn -0.5987 0 0.801
vn 0 1 0
vn 0.4454 0 0.8953
vn -0.5987 0 0.801
vn -0.347 0 -0.9379
vn 0 -1 0
vn 0.5641 0 -0.8257
vn -0.347 0 -0.9379
vn 0 1 0
vn 0.5641 0 -0.8257
vn 0.1222 0 0.9925
vn 0 -1 0
vn 0.1222 0 0.9925
vn 0 1 0
vn 0 -1 0
vn 0.4454 0 -0.8953
vn -0.5987 0 -0.801
vn 0 1 0
vn 0.4454 0 -0.8953
vn -0.5987 0 -0.801
vn -0.1763 0 -0.9843
vn 0 -1 0
vn -0.1763 0 -0.9843
vn 0 1 0
vn -0.347 0 0.9379
vn 0 -1 0
vn 0 0 1
vn -0.347 0 0.9379
vn 0 1 0
vn 0 0 1
vn 0 -1 0
vn 0 0 1
vn 0.4454 0 0.8953
vn 0 1 0
vn 0 0 1
vn 0.4454 0 0.8953
vn 0 -1 0
vn 0.4454 0 -0.8953
vn 0 0 -1
vn 0 1 0
vn 0.4454 0 -0.8953
vn 0 0 -1
vn 0 -1 0
vn 1 0 0
vn 0 0 1
vn 0 1 0
vn 1 0 0
vn 0 0 1
vn 0 0 -1
vn 0 -1 0
vn 1 0 0
vn 0 0 -1
vn 0 1 0
vn 1 0 0
vn 0 0 1
vn 0 -1 0
vn 1 0 0
vn 0 0 1
vn 0 1 0
vn 1 0 0
vn 0 -1 0
vn 1 0 0
vn 0 0 -1
vn 0 1 0
vn 1 0 0
vn 0 0 -1
f 17/45/45 19/49/49 20/52/52 18/47/47
f 18/47/47 24/66/66 23/63/63 17/45/45
f 24/64/64 30/79/79 29/77/77 23/61/61
f 25/67/67 31/81/81 32/84/84 26/69/69
f 26/69/69 20/54/54 19/51/51 25/67/67
f 30/79/79 40/108/108 39/105/105 29/77/77
f 42/114/114 32/86/86 31/83/83 41/111/111
f 37/99/99 33/87/87 29/78/78 39/106/106
f 33/87/87 21/55/55 23/62/62 29/78/78
f 23/62/62 21/55/55 13/33/33 17/46/46
f 13/35/35 15/38/38 19/50/50 17/46/46
f 15/38/38 27/71/71 25/68/68 19/50/50
f 27/71/71 35/93/93 31/82/82 25/68/68
f 35/93/93 43/117/117 41/112/112 31/82/82
f 44/120/120 36/96/96 32/85/85 42/115/115
f 36/96/96 28/74/74 26/70/70 32/85/85
f 26/70/70 28/74/74 16/41/41 20/53/53
f 16/43/43 14/36/36 18/48/48 20/53/53
f 14/36/36 22/58/58 24/65/65 18/48/48
f 22/58/58 34/90/90 30/80/80 24/65/65
f 34/90/90 38/102/102 40/109/109 30/80/80
f 37/100/100 39/107/107 40/110/110 38/103/103
f 41/113/113 43/118/118 44/121/121 42/116/116
f 15/40/40 13/34/34 14/37/37 16/44/44
f 13/34/34 21/57/57 22/60/60 14/37/37
f 21/56/56 33/89/89 34/92/92 22/59/59
f 43/119/119 35/95/95 36/98/98 44/122/122
f 38/104/104 34/91/91 33/88/88 37/101/101
f 16/42/42 28/76/76 27/73/73 15/39/39
f 28/75/75 36/97/97 35/94/94 27/72/72
g CoverImage
o 02_CoverImage
usemtl CoverGraphics
v 0.2239 0.01228 0.5591
v 0.2239 0.9815 0.5591
v 0.8343 0.01228 0.5591
v 0.8343 0.9815 0.5591
vt 0.1852 0.9998
vt 0.1852 0.000198
vt 0.8148 0.9998
vt 0.8148 0.000198
vn 0 0 1
vn 0 0 1
vn 0 0 1
vn 0 0 1
f 48/126/126 46/124/124 45/123/123 47/125/125
