# Rhino

mtllib book.mtl
g 00_Cover
usemtl Cover
v 2 -2.232 -98.01
v 2 -2.232 2
v -2 -2.232 -98.01
v -2 -2.232 2
v -4.83 -0.366 -98.01
v -4.83 -0.366 2
v 5.196 1 2
v 5.196 1 -98.01
v 4.83 -0.366 -98.01
v 4.83 -0.366 2
v -5.196 1 -98.01
v -60.62 33 -98.01
v -60.62 33 2
v -5.196 1 2
v 60.62 33 -98.01
v 60.62 33 2
v -61.62 31.27 2
v -7.062 -0.232 2
v -5.196 1 2
v -60.62 33 2
v -6.696 -1.598 2
v -4.83 -0.366 2
v -3 -4.233 2
v -2 -2.232 2
v 3 -4.233 2
v 2 -2.232 2
v 6.696 -1.598 2
v 4.83 -0.366 2
v 7.062 -0.232 2
v 5.196 1 2
v 61.62 31.27 2
v 60.62 33 2
v 61.62 31.27 -98.01
v 60.62 33 -98.01
v 7.062 -0.232 -98.01
v 5.196 1 -98.01
v 4.83 -0.366 -98.01
v 6.696 -1.598 -98.01
v 3 -4.233 -98.01
v -3 -4.233 -98.01
v -2 -2.232 -98.01
v 2 -2.232 -98.01
v -6.696 -1.598 -98.01
v -4.83 -0.366 -98.01
v -7.062 -0.232 -98.01
v -5.196 1 -98.01
v -61.62 31.27 -98.01
v -60.62 33 -98.01
v -61.62 31.27 2
v -60.62 33 2
v -60.62 33 -98.01
v -61.62 31.27 -98.01
v 60.62 33 2
v 61.62 31.27 2
v 61.62 31.27 -98.01
v 60.62 33 -98.01
v 3 -4.233 2
v 3 -4.233 -98.01
v -3 -4.233 2
v -3 -4.233 -98.01
v -6.696 -1.598 2
v -6.696 -1.598 -98.01
v 61.62 31.27 2
v 61.62 31.27 -98.01
v -61.62 31.27 -98.01
v -7.062 -0.232 -98.01
v -7.062 -0.232 2
v -61.62 31.27 2
v 6.696 -1.598 -98.01
v 6.696 -1.598 2
v 7.062 -0.232 -98.01
v 7.062 -0.232 2
v -4.83 -0.366 -98.01
v -4.83 -0.366 2
v 2 -2.232 -98.01
v 2 -2.232 2
v -6.696 -1.598 2
v -6.696 -1.598 -98.01
v -7.062 -0.232 2
v -7.062 -0.232 -98.01
v 7.062 -0.232 2
v 7.062 -0.232 -98.01
v 6.696 -1.598 -98.01
v 6.696 -1.598 2
v 5.196 1 -98.01
v 5.196 1 2
v -3 -4.233 2
v 3 -4.233 -98.01
v 3 -4.233 2
v 3 -4.233 -98.01
vt 0.3892 0
vt 0.3892 1
vt 0.3333 0
vt 0.3333 1
vt 0.4158 0
vt 0.4158 1
vt 0.02384 1
vt 0.02384 0
vt 0.3014 0
vt 0.3014 1
vt 0.4267 0
vt 0.7096 0
vt 0.7096 1
vt 0.4267 1
vt 0.3122 0
vt 0.3122 1
vt 0.7428 0
vt 0.7428 0.9131
vt 0.7619 0.9276
vt 0.7619 0
vt 0.7334 0.942
vt 0.7584 0.942
vt 0.7619 1
vt 0.7714 0.971
vt 0.8382 1
vt 0.8287 0.971
vt 0.8667 0.942
vt 0.8417 0.942
vt 0.8573 0.9131
vt 0.8382 0.9276
vt 0.8573 0
vt 0.8382 0
vt 0.8761 0
vt 0.8952 0
vt 0.8761 0.9131
vt 0.8952 0.9276
vt 0.8917 0.942
vt 0.8667 0.942
vt 0.8952 1
vt 0.9715 1
vt 0.962 0.971
vt 0.9047 0.971
vt 1 0.942
vt 0.975 0.942
vt 0.9906 0.9131
vt 0.9715 0.9276
vt 0.9906 0
vt 0.9715 0
vt 4.998e-15 1
vt 0.02384 1
vt 0.02384 0
vt 6.592e-17 0
vt 0.7096 1
vt 0.7334 1
vt 0.7334 0
vt 0.7096 0
vt 0.3333 1
vt 0.3333 0
vt 0.3892 1
vt 0.3892 0
vt 0.4158 1
vt 0.4158 0
vt 0.02384 1
vt 0.02384 0
vt 0.7096 0
vt 0.4267 0
vt 0.4267 1
vt 0.7096 1
vt 0.3122 0
vt 0.3122 1
vt 0.3014 0
vt 0.3014 1
vt 0.4158 0
vt 0.4158 1
vt 0.3892 0
vt 0.3892 1
vt 0.4158 1
vt 0.4158 0
vt 0.4267 1
vt 0.4267 0
vt 0.3014 1
vt 0.3014 0
vt 0.3123 0
vt 0.3123 1
vt 0.02384 0
vt 0.02384 1
vt 0.7619 1
vt 0.8952 1
vt 0.3333 1
vt 0.3333 0
vn 0 1 0
vn 0 1 0
vn 0.2874 0.9578 0
vn 0.2874 0.9578 0
vn 0.9659 0.2588 0
vn 0.9659 0.2588 0
vn -0.9659 0.2588 0
vn -0.9659 0.2588 0
vn -0.8111 0.585 0
vn -0.8111 0.585 0
vn 0.7934 0.6088 0
vn 0.5 0.866 0
vn 0.5 0.866 0
vn 0.7934 0.6088 0
vn -0.5 0.866 0
vn -0.5 0.866 0
vn 0 0 1
vn 0 0 1
vn 0 0 1
vn 0 0 1
vn 0 0 1
vn -0.0001056 -0.00176 1
vn 0 0 1
vn 0 0 1
vn -0.0009633 0.0004557 1
vn 0 0 1
vn -0.001771 -0.001023 1
vn 0 0 1
vn 0 0 1
vn 0 0 1
vn 0 0 1
vn 0 0 1
vn 0 0 -1
vn 0 0 -1
vn 0 0 -1
vn 0 0 -1
vn 0.001771 0.001023 -1
vn 0 0 -1
vn 0 0 -1
vn 0.0006679 -1.444e-19 -1
vn 0 0 -1
vn 0.0009633 -0.0004557 -1
vn 0 0 -1
vn 0.0001056 0.00176 -1
vn 0 0 -1
vn 0 0 -1
vn 0 0 -1
vn 0 0 -1
vn -0.8658 0.5004 0
vn -0.8658 0.5004 0
vn -0.8658 0.5004 0
vn -0.8658 0.5004 0
vn 0.8658 0.5004 0
vn 0.8658 0.5004 0
vn 0.8658 0.5004 0
vn 0.8658 0.5004 0
vn 0.5806 -0.8142 0
vn 0.5806 -0.8142 0
vn -0.3048 -0.9524 0
vn -0.3048 -0.9524 0
vn -0.9659 -0.2588 0
vn -0.9659 -0.2588 0
vn 0.5 -0.866 0
vn 0.5 -0.866 0
vn -0.5 -0.866 0
vn -0.5 -0.866 0
vn -0.5 -0.866 0
vn -0.5 -0.866 0
vn 0.9659 -0.2588 0
vn 0.9659 -0.2588 0
vn 0.9659 -0.2588 0
vn 0.9659 -0.2588 0
vn 0.5505 0.8349 0
vn 0.5505 0.8349 0
vn -0.5505 0.8349 0
vn -0.5505 0.8349 0
vn -0.5806 -0.8142 0
vn -0.5806 -0.8142 0
vn -0.9659 -0.2588 0
vn -0.9659 -0.2588 0
vn 0.5 -0.866 0
vn 0.5 -0.866 0
vn 0.5806 -0.8142 0
vn 0.5806 -0.8142 0
vn -0.5 0.866 0
vn -0.5 0.866 0
vn 0 0 1
vn 0 0 -1
vn 0 -1 0
vn 0 -1 0
f 4/4/4 2/2/2 1/1/1 3/3/3
f 3/3/3 73/73/73 74/74/74 4/4/4
f 5/5/5 11/11/11 14/14/14 6/6/6
f 10/10/10 7/7/7 8/8/8 9/9/9
f 9/9/9 75/75/75 76/76/76 10/10/10
f 11/11/11 12/12/12 13/13/13 14/14/14
f 15/15/15 85/85/85 86/86/86 16/16/16
f 17/17/17 18/18/18 19/19/19 20/20/20
f 18/18/18 21/21/21 22/22/22 19/19/19
f 22/22/22 21/21/21 23/23/23 24/24/24
f 87/87/87 25/25/25 26/26/26 24/24/24
f 25/25/25 27/27/27 28/28/28 26/26/26
f 27/27/27 29/29/29 30/30/30 28/28/28
f 29/29/29 31/31/31 32/32/32 30/30/30
f 33/33/33 35/35/35 36/36/36 34/34/34
f 35/35/35 38/38/38 37/37/37 36/36/36
f 37/37/37 38/38/38 39/39/39 42/42/42
f 88/88/88 40/40/40 41/41/41 42/42/42
f 40/40/40 43/43/43 44/44/44 41/41/41
f 43/43/43 45/45/45 46/46/46 44/44/44
f 45/45/45 47/47/47 48/48/48 46/46/46
f 49/49/49 50/50/50 51/51/51 52/52/52
f 53/53/53 54/54/54 55/55/55 56/56/56
f 89/89/89 59/59/59 60/60/60 90/90/90
f 59/59/59 77/77/77 78/78/78 60/60/60
f 61/61/61 79/79/79 80/80/80 62/62/62
f 63/63/63 81/81/81 82/82/82 64/64/64
f 65/65/65 66/66/66 67/67/67 68/68/68
f 58/58/58 83/83/83 84/84/84 57/57/57
f 69/69/69 71/71/71 72/72/72 70/70/70
g 2_Binding
usemtl New_material_002
v 4.746 1.779 -0.3333
v 6.062 1.5 -0.3333
v 5.972 1.36 -0.1667
v 5.881 1.22 0
v 4.615 1.473 0
v 2.625 1.643 0
v 2.73 1.959 -0.3333
v 0 1.833 -0.1667
v 0 2 -0.3333
v 0 1.667 0
v 5.972 1.36 0.1667
v 6.062 1.5 0.3333
v 4.746 1.779 0.3333
v 6.153 1.64 0.1667
v 6.243 1.78 0
v 4.877 2.086 0
v 2.73 1.959 0.3333
v 2.835 2.276 0
v 0 1.833 0.1667
v 0 2 0.3333
v 0 2.167 0.1667
v 0 2.333 0
v 0 2.167 -0.1667
v -4.746 1.779 -0.3333
v -5.972 1.36 -0.1667
v -6.062 1.5 -0.3333
v -5.881 1.22 0
v -4.615 1.473 0
v -2.73 1.959 -0.3333
v -2.625 1.643 0
v -5.972 1.36 0.1667
v -6.062 1.5 0.3333
v -4.746 1.779 0.3333
v -6.153 1.64 0.1667
v -6.243 1.78 0
v -4.877 2.086 0
v -2.73 1.959 0.3333
v -2.835 2.276 0
vt 0.5555 0.2206
vt 0.3579 0.4412
vt 0.3579 0.3267
vt 0.2975 0.3267
vt 0.3402 0.348
vt 0.2042 0.5236
vt 0.2962 0.2532
vt 0.9985 0.6702
vt 0.4993 0.7445
vt 0.9985 0.723
vt 0.1976 0.2872
vt 0.258 0.3445
vt 0.4492 0.2286
vt 0.3579 0.4412
vt 0.3579 0.4985
vt 0.6539 0.3093
vt 0.3354 0.3016
vt 0.546 0.1487
vt 0.9985 0.7847
vt 0.5776 0.8412
vt 0.1178 0.8582
vt 0.078 0.8582
vt 0.0388 0.8582
vt 0.5638 0.3694
vt 0.3579 0.3267
vt 0.3579 0.4412
vt 0.2975 0.3267
vt 0.3185 0.1648
vt 0.2962 0.2532
vt 0.2033 0.5565
vt 0.1976 0.2872
vt 0.258 0.3445
vt 0.4492 0.3568
vt 0.3579 0.4412
vt 0.3579 0.4985
vt 0.6794 0.1246
vt 0.3354 0.3016
vt 0.2395 0.0496
vn -0.0008 0.0265 -0.9996
vn 0.04 0.1614 -0.9861
vn -0.1478 -0.7143 -0.684
vn -0.196 -0.9806 0
vn -0.1373 -0.9905 -0.0006
vn -0.0446 -0.999 -0.0003
vn -0.0008 0.0158 -0.9999
vn 0 -0.7084 -0.7059
vn 0 0.0068 -1
vn 0 -1 0
vn -0.1478 -0.7143 0.684
vn 0.0354 0.167 0.9853
vn 0.0003 0.0277 0.9996
vn 0.1557 0.7112 0.6855
vn 0.2186 0.9758 0.0004
vn 0.1582 0.9874 0.0011
vn -0.0015 0.017 0.9999
vn 0.0592 0.9982 0.0007
vn 0 -0.7084 0.7059
vn 0 0.0068 1
vn 0 0.7082 0.706
vn 0 1 0.001
vn 0 0.7075 -0.7067
vn 0.0008 0.0265 -0.9996
vn 0.1478 -0.7143 -0.684
vn -0.04 0.1614 -0.9861
vn 0.196 -0.9806 0
vn 0.1373 -0.9905 -0.0006
vn 0.0008 0.0158 -0.9999
vn 0.0446 -0.999 -0.0003
vn 0.1478 -0.7143 0.684
vn -0.0354 0.167 0.9853
vn -0.0003 0.0277 0.9996
vn -0.1557 0.7112 0.6855
vn -0.2186 0.9758 0.0004
vn -0.1582 0.9874 0.0011
vn 0.0015 0.017 0.9999
vn -0.0592 0.9982 0.0007
f 91/91/91 92/92/92 93/93/93
f 94/94/94 95/95/95 93/93/93
f 91/91/91 93/93/93 95/95/95
f 95/95/95 96/96/96 97/97/97 91/91/91
f 98/98/98 97/97/97 96/96/96
f 97/97/97 98/98/98 99/99/99
f 96/96/96 100/100/100 98/98/98
f 95/95/95 94/94/94 101/101/101
f 102/102/102 103/103/103 101/101/101
f 95/95/95 101/101/101 103/103/103
f 103/103/103 102/102/102 104/104/104
f 105/105/105 106/106/106 104/104/104
f 103/103/103 104/104/104 106/106/106
f 92/92/92 91/91/91 106/106/106 105/105/105
f 103/103/103 107/107/107 96/96/96 95/95/95
f 106/106/106 108/108/108 107/107/107 103/103/103
f 91/91/91 97/97/97 108/108/108 106/106/106
f 109/109/109 96/96/96 107/107/107
f 96/96/96 109/109/109 100/100/100
f 107/107/107 110/110/110 109/109/109
f 111/111/111 107/107/107 108/108/108
f 107/107/107 111/111/111 110/110/110
f 108/108/108 112/112/112 111/111/111
f 97/97/97 113/113/113 112/112/112 108/108/108
f 97/97/97 99/99/99 113/113/113
f 114/114/114 115/115/115 116/116/116
f 117/117/117 115/115/115 118/118/118
f 114/114/114 118/118/118 115/115/115
f 118/118/118 114/114/114 119/119/119 120/120/120
f 98/98/98 120/120/120 119/119/119
f 119/119/119 99/99/99 98/98/98
f 120/120/120 98/98/98 100/100/100
f 118/118/118 121/121/121 117/117/117
f 122/122/122 121/121/121 123/123/123
f 118/118/118 123/123/123 121/121/121
f 123/123/123 124/124/124 122/122/122
f 125/125/125 124/124/124 126/126/126
f 123/123/123 126/126/126 124/124/124
f 116/116/116 125/125/125 126/126/126 114/114/114
f 123/123/123 118/118/118 120/120/120 127/127/127
f 126/126/126 123/123/123 127/127/127 128/128/128
f 114/114/114 126/126/126 128/128/128 119/119/119
f 109/109/109 127/127/127 120/120/120
f 120/120/120 100/100/100 109/109/109
f 127/127/127 109/109/109 110/110/110
f 111/111/111 128/128/128 127/127/127
f 127/127/127 110/110/110 111/111/111
f 128/128/128 111/111/111 112/112/112
f 119/119/119 128/128/128 112/112/112 113/113/113
f 119/119/119 113/113/113 99/99/99
g 1_Paper
usemtl Default
v -58.89 32 -96
v -58.89 32 -96
v -58.89 32 0
v -58.89 32 0
v -54.29 33.96 0
v -54.29 33.96 0
v -54.29 33.96 0
v -54.29 33.96 -96
v -54.29 33.96 -96
v -54.29 33.96 -96
v -0.5007 3.735 -96
v -0.5007 3.735 -96
v -0.5007 3.735 0
v -0.5007 3.735 0
v 0 2 0
v 0 2 0
v 0 2 0
v 0 2 0
v 0 2 -96
v 0 2 -96
v 0 2 -96
v -1.63 5.177 -96
v -1.63 5.177 -96
v -1.63 5.177 0
v -1.63 5.177 0
v -3.362 6.43 -96
v -3.362 6.43 -96
v -3.362 6.43 0
v -3.362 6.43 0
v -7.051 8.159 -96
v -7.051 8.159 -96
v -7.051 8.159 0
v -7.051 8.159 0
v -10 9.166 -96
v -10 9.166 -96
v -10 9.166 0
v -10 9.166 0
v -14.45 10.96 -96
v -14.45 10.96 -96
v -14.45 10.96 0
v -14.45 10.96 0
v -6.062 1.5 0
v -4.746 1.779 0
v -2.73 1.959 0
v -6.062 1.5 -96
v -4.746 1.779 -96
v -2.73 1.959 -96
v 58.89 32 -96
v 58.89 32 -96
v 54.29 33.96 -96
v 54.29 33.96 -96
v 54.29 33.96 -96
v 54.29 33.96 0
v 54.29 33.96 0
v 54.29 33.96 0
v 58.89 32 0
v 58.89 32 0
v 0.5007 3.735 -96
v 0.5007 3.735 -96
v 0.5007 3.735 0
v 0.5007 3.735 0
v 1.63 5.177 -96
v 1.63 5.177 -96
v 1.63 5.177 0
v 1.63 5.177 0
v 3.362 6.43 -96
v 3.362 6.43 -96
v 3.362 6.43 0
v 3.362 6.43 0
v 7.051 8.159 -96
v 7.051 8.159 -96
v 7.051 8.159 0
v 7.051 8.159 0
v 10 9.166 -96
v 10 9.166 -96
v 10 9.166 0
v 10 9.166 0
v 14.45 10.96 -96
v 14.45 10.96 -96
v 14.45 10.96 0
v 14.45 10.96 0
v 6.062 1.5 0
v 4.746 1.779 0
v 2.73 1.959 0
v 6.062 1.5 -96
v 4.746 1.779 -96
v 2.73 1.959 -96
vt 0 1
vt 1 1
vt 1 0
vt 0 1
vt 0.8361 0
vt 0.8361 0
vt 1 1
vt 0.8361 1
vt 1 1
vt 0.8361 1
vt 0.5 0
vt 0.0652 1
vt 0.0652 0
vt 0.5 0
vt 0 0
vt 1 1
vt 1 1
vt 0 0
vt 1 1
vt 0 1
vt 0 1
vt 1 0.5
vt 0.1014 1
vt 1 0.5
vt 0.1014 0
vt 1 0.5
vt 0.13 1
vt 0.13 0
vt 1 0.5
vt 1 0.5
vt 0.1556 1
vt 1 0.5
vt 0.1556 0
vt 1 0.5
vt 0.2084 1
vt 1 0.5
vt 0.2084 0
vt 1 0.5
vt 0.3115 1
vt 1 0.5
vt 0.3115 0
vt 0 0.25
vt 0 0.5
vt 0.125 0
vt 0 0.5
vt 0 0.5
vt 0.125 0
vt 0 1
vt 1 1
vt 0.8361 1
vt 1 1
vt 0.8361 1
vt 0.8361 0
vt 1 1
vt 0.8361 0
vt 0 1
vt 1 0
vt 0.5 0
vt 0.0652 1
vt 0.5 0
vt 0.0652 0
vt 1 0.5
vt 0.1014 1
vt 1 0.5
vt 0.1014 0
vt 1 0.5
vt 0.13 1
vt 1 0.5
vt 0.13 0
vt 1 0.5
vt 0.1556 1
vt 1 0.5
vt 0.1556 0
vt 1 0.5
vt 0.2084 1
vt 1 0.5
vt 0.2084 0
vt 1 0.5
vt 0.3115 1
vt 1 0.5
vt 0.3115 0
vt 0 0.25
vt 0 0.5
vt 0.125 0
vt 0 0.5
vt 0 0.5
vt 0.125 0
vn 0 0 -1
vn -0.392 0.92 0
vn -0.392 0.92 0
vn 0 0 1
vn 0.5 0.866 0
vn -0.392 0.92 0
vn 0 0 1
vn 0.5 0.866 0
vn 0 0 -1
vn -0.392 0.92 0
vn 0 0 -1
vn 0.8904 0.4553 0
vn 0.8904 0.4553 0
vn 0 0 1
vn 0.9608 0.2773 0
vn 0 0 1
vn 0 0 1
vn -0.9608 0.2773 0
vn 0 0 -1
vn 0.9608 0.2773 0
vn -0.9608 0.2773 0
vn 0 0 -1
vn 0.6934 0.7205 0
vn 0 0 1
vn 0.6934 0.7205 0
vn 0 0 -1
vn 0.5074 0.8617 0
vn 0.5074 0.8617 0
vn 0 0 1
vn 0 0 -1
vn 0.3744 0.9273 0
vn 0 0 1
vn 0.3744 0.9273 0
vn 0 0 -1
vn 0.3487 0.9372 0
vn 0 0 1
vn 0.3487 0.9372 0
vn 0 0 -1
vn 0.438 0.899 0
vn 0 0 1
vn 0.438 0.899 0
vn 0 0 1
vn 0 0 1
vn 0 0 1
vn 0 0 -1
vn 0 0 -1
vn 0 0 -1
vn 0 0 -1
vn 0.392 0.92 0
vn -0.5 0.866 0
vn 0 0 -1
vn 0.392 0.92 0
vn -0.5 0.866 0
vn 0 0 1
vn 0.392 0.92 0
vn 0 0 1
vn 0.392 0.92 0
vn 0 0 -1
vn -0.8904 0.4553 0
vn 0 0 1
vn -0.8904 0.4553 0
vn 0 0 -1
vn -0.6934 0.7205 0
vn 0 0 1
vn -0.6934 0.7205 0
vn 0 0 -1
vn -0.5074 0.8617 0
vn 0 0 1
vn -0.5074 0.8617 0
vn 0 0 -1
vn -0.3744 0.9273 0
vn 0 0 1
vn -0.3744 0.9273 0
vn 0 0 -1
vn -0.3487 0.9372 0
vn 0 0 1
vn -0.3487 0.9372 0
vn 0 0 -1
vn -0.438 0.899 0
vn 0 0 1
vn -0.438 0.899 0
vn 0 0 1
vn 0 0 1
vn 0 0 1
vn 0 0 -1
vn 0 0 -1
vn 0 0 -1
f 130/130/130 131/131/131 134/134/134 138/138/138
f 140/140/140 141/141/141 143/143/143 148/148/148
f 151/151/151 153/153/153 141/141/141 140/140/140
f 155/155/155 156/156/156 153/153/153 151/151/151
f 159/159/159 161/161/161 156/156/156 155/155/155
f 163/163/163 165/165/165 161/161/161 159/159/159
f 167/167/167 169/169/169 165/165/165 163/163/163
f 136/136/136 133/133/133 169/169/169 167/167/167
f 170/170/170 168/168/168 132/132/132
f 170/170/170 164/164/164 168/168/168
f 171/171/171 160/160/160 164/164/164
f 172/172/172 157/157/157 160/160/160
f 172/172/172 152/152/152 157/157/157
f 172/172/172 142/142/142 152/152/152
f 142/142/142 172/172/172 145/145/145
f 173/173/173 129/129/129 166/166/166
f 173/173/173 166/166/166 162/162/162
f 174/174/174 173/173/173 162/162/162
f 175/175/175 174/174/174 158/158/158
f 175/175/175 154/154/154 150/150/150
f 175/175/175 150/150/150 139/139/139
f 139/139/139 147/147/147 175/175/175
f 168/168/168 135/135/135 132/132/132
f 171/171/171 164/164/164 170/170/170
f 172/172/172 160/160/160 171/171/171
f 129/129/129 137/137/137 166/166/166
f 174/174/174 162/162/162 158/158/158
f 175/175/175 158/158/158 154/154/154
f 177/177/177 180/180/180 183/183/183 185/185/185
f 187/187/187 149/149/149 146/146/146 189/189/189
f 191/191/191 187/187/187 189/189/189 193/193/193
f 195/195/195 191/191/191 193/193/193 197/197/197
f 199/199/199 195/195/195 197/197/197 201/201/201
f 203/203/203 199/199/199 201/201/201 205/205/205
f 207/207/207 203/203/203 205/205/205 209/209/209
f 178/178/178 207/207/207 209/209/209 181/181/181
f 210/210/210 184/184/184 208/208/208
f 210/210/210 208/208/208 204/204/204
f 211/211/211 204/204/204 200/200/200
f 212/212/212 200/200/200 196/196/196
f 212/212/212 196/196/196 192/192/192
f 212/212/212 192/192/192 188/188/188
f 188/188/188 144/144/144 212/212/212
f 213/213/213 206/206/206 176/176/176
f 213/213/213 202/202/202 206/206/206
f 214/214/214 202/202/202 213/213/213
f 215/215/215 198/198/198 214/214/214
f 215/215/215 190/190/190 194/194/194
f 215/215/215 186/186/186 190/190/190
f 186/186/186 215/215/215 147/147/147
f 208/208/208 184/184/184 182/182/182
f 211/211/211 210/210/210 204/204/204
f 212/212/212 211/211/211 200/200/200
f 176/176/176 206/206/206 179/179/179
f 214/214/214 198/198/198 202/202/202
f 215/215/215 194/194/194 198/198/198
