# Rhino

mtllib book.mtl
g 00_Cover
usemtl Cover
v 2 -2 -98.01
v 2 -2 2
v -2 -2 -98.01
v -2 -2 2
v -5 -1 -98.01
v -5 -1 2
v 6 0 2
v 6 0 -98.01
v 5 -1 -98.01
v 5 -1 2
v -6 0 -98.01
v -70 0 -98.01
v -70 0 2
v -6 0 2
v 70 0 -98.01
v 70 0 2
v -70 -2 2
v -7 -2 2
v -6 0 2
v -70 0 2
v -6 -3 2
v -5 -1 2
v -3 -4 2
v -2 -2 2
v 3.001 -4.001 2
v 2 -2 2
v 6 -3 2
v 5 -1 2
v 7 -2 2
v 6 0 2
v 70 -2 2
v 70 0 2
v 70 -2 -98.01
v 70 0 -98.01
v 7 -2 -98.01
v 6 0 -98.01
v 5 -1 -98.01
v 6 -3 -98.01
v 3.001 -4.001 -98.01
v -3 -4 -98.01
v -2 -2 -98.01
v 2 -2 -98.01
v -6 -3 -98.01
v -5 -1 -98.01
v -7 -2 -98.01
v -6 0 -98.01
v -70 -2 -98.01
v -70 0 -98.01
v -70 -2 2
v -70 0 2
v -70 0 -98.01
v -70 -2 -98.01
v 70 0 2
v 70 -2 2
v 70 -2 -98.01
v 70 0 -98.01
v 3.001 -4.001 2
v 3.001 -4.001 -98.01
v -3 -4 2
v -3 -4 -98.01
v -6 -3 2
v -6 -3 -98.01
v 70 -2 2
v 70 -2 -98.01
v -70 -2 -98.01
v -7 -2 -98.01
v -7 -2 2
v -70 -2 2
v 6 -3 -98.01
v 6 -3 2
v 7 -2 -98.01
v 7 -2 2
v -5 -1 -98.01
v -5 -1 2
v 2 -2 -98.01
v 2 -2 2
v -6 -3 2
v -6 -3 -98.01
v -7 -2 2
v -7 -2 -98.01
v 7 -2 2
v 7 -2 -98.01
v 6 -3 -98.01
v 6 -3 2
v 6 0 -98.01
v 6 0 2
v -3 -4 2
v 3.001 -4.001 -98.01
v 3.001 -4.001 2
v 3.001 -4.001 -98.01
vt 0.3892 0
vt 0.3892 1
vt 0.3333 0
vt 0.3333 1
vt 0.4158 0
vt 0.4158 1
vt 0.02384 1
vt 0.02384 0
vt 0.3014 0
vt 0.3014 1
vt 0.4267 0
vt 0.7096 0
vt 0.7096 1
vt 0.4267 1
vt 0.3122 0
vt 0.3122 1
vt 0.7428 0
vt 0.7428 0.9131
vt 0.7619 0.9276
vt 0.7619 0
vt 0.7334 0.942
vt 0.7584 0.942
vt 0.7619 1
vt 0.7714 0.971
vt 0.8382 1
vt 0.8287 0.971
vt 0.8667 0.942
vt 0.8417 0.942
vt 0.8573 0.9131
vt 0.8382 0.9276
vt 0.8573 0
vt 0.8382 0
vt 0.8761 0
vt 0.8952 0
vt 0.8761 0.9131
vt 0.8952 0.9276
vt 0.8917 0.942
vt 0.8667 0.942
vt 0.8952 1
vt 0.9715 1
vt 0.962 0.971
vt 0.9047 0.971
vt 1 0.942
vt 0.975 0.942
vt 0.9906 0.9131
vt 0.9715 0.9276
vt 0.9906 0
vt 0.9715 0
vt 4.998e-15 1
vt 0.02384 1
vt 0.02384 0
vt 6.592e-17 0
vt 0.7096 1
vt 0.7334 1
vt 0.7334 0
vt 0.7096 0
vt 0.3333 1
vt 0.3333 0
vt 0.3892 1
vt 0.3892 0
vt 0.4158 1
vt 0.4158 0
vt 0.02384 1
vt 0.02384 0
vt 0.7096 0
vt 0.4267 0
vt 0.4267 1
vt 0.7096 1
vt 0.3122 0
vt 0.3122 1
vt 0.3014 0
vt 0.3014 1
vt 0.4158 0
vt 0.4158 1
vt 0.3892 0
vt 0.3892 1
vt 0.4158 1
vt 0.4158 0
vt 0.4267 1
vt 0.4267 0
vt 0.3014 1
vt 0.3014 0
vt 0.3123 0
vt 0.3123 1
vt 0.02384 0
vt 0.02384 1
vt 0.7619 1
vt 0.8952 1
vt 0.3333 1
vt 0.3333 0
vn 0 1 0
vn 0 1 0
vn 0.1602 0.9871 0
vn 0.1602 0.9871 0
vn 0.7071 0.7071 0
vn 0.7071 0.7071 0
vn -0.7071 0.7071 0
vn -0.7071 0.7071 0
vn -0.5257 0.8507 0
vn -0.5257 0.8507 0
vn 0.3827 0.9239 0
vn 0 1 0
vn 0 1 0
vn 0.3827 0.9239 0
vn 0 1 0
vn 0 1 0
vn -5.504e-05 -0.001734 1
vn 0 0 1
vn -0.001519 0 1
vn 0 0 1
vn 0 0 1
vn -0.0002686 0.001074 1
vn 0 0 1
vn 0 0 1
vn -0.001006 0.0006698 1
vn 0 0 1
vn -0.003976 0 1
vn 0 0 1
vn 0 0 1
vn -1.882e-06 -6.023e-05 1
vn -3.764e-06 -0.0001205 1
vn 0 0 1
vn 0 0 -1
vn 0 0 -1
vn 1.882e-06 6.023e-05 -1
vn 0 0 -1
vn 0.003976 0 -1
vn 0 0 -1
vn 0 0 -1
vn 0.0006662 1.665e-07 -1
vn 0 0 -1
vn 0.001006 -0.0006698 -1
vn 0.0002686 -0.001074 -1
vn 0 0 -1
vn 0.001519 0 -1
vn 0 0 -1
vn 5.504e-05 0.001734 -1
vn 0 0 -1
vn -1 0 0
vn -1 0 0
vn -1 0 0
vn -1 0 0
vn 1 0 0
vn 1 0 0
vn 1 0 0
vn 1 0 0
vn 0.3166 -0.9486 0
vn 0.3166 -0.9486 0
vn -0.1603 -0.9871 0
vn -0.1603 -0.9871 0
vn -0.7071 -0.7071 0
vn -0.7071 -0.7071 0
vn 0 -1 0
vn 0 -1 0
vn 0 -1 0
vn 0 -1 0
vn 0 -1 0
vn 0 -1 0
vn 0.7071 -0.7071 0
vn 0.7071 -0.7071 0
vn 0.7071 -0.7071 0
vn 0.7071 -0.7071 0
vn 0.3162 0.9487 0
vn 0.3162 0.9487 0
vn -0.3162 0.9487 0
vn -0.3162 0.9487 0
vn -0.3162 -0.9487 0
vn -0.3162 -0.9487 0
vn -0.7071 -0.7071 0
vn -0.7071 -0.7071 0
vn 0 -1 0
vn 0 -1 0
vn 0.3166 -0.9486 0
vn 0.3166 -0.9486 0
vn 0 1 0
vn 0 1 0
vn 0 0 1
vn 0 0 -1
vn -0.0001666 -1 0
vn -0.0001666 -1 0
f 4/4/4 2/2/2 1/1/1 3/3/3
f 3/3/3 73/73/73 74/74/74 4/4/4
f 5/5/5 11/11/11 14/14/14 6/6/6
f 10/10/10 7/7/7 8/8/8 9/9/9
f 9/9/9 75/75/75 76/76/76 10/10/10
f 11/11/11 12/12/12 13/13/13 14/14/14
f 15/15/15 85/85/85 86/86/86 16/16/16
f 17/17/17 18/18/18 19/19/19 20/20/20
f 18/18/18 21/21/21 22/22/22 19/19/19
f 22/22/22 21/21/21 23/23/23 24/24/24
f 87/87/87 25/25/25 26/26/26 24/24/24
f 25/25/25 27/27/27 28/28/28 26/26/26
f 27/27/27 29/29/29 30/30/30 28/28/28
f 29/29/29 31/31/31 32/32/32 30/30/30
f 33/33/33 35/35/35 36/36/36 34/34/34
f 35/35/35 38/38/38 37/37/37 36/36/36
f 37/37/37 38/38/38 39/39/39 42/42/42
f 88/88/88 40/40/40 41/41/41 42/42/42
f 40/40/40 43/43/43 44/44/44 41/41/41
f 43/43/43 45/45/45 46/46/46 44/44/44
f 45/45/45 47/47/47 48/48/48 46/46/46
f 49/49/49 50/50/50 51/51/51 52/52/52
f 53/53/53 54/54/54 55/55/55 56/56/56
f 89/89/89 59/59/59 60/60/60 90/90/90
f 59/59/59 77/77/77 78/78/78 60/60/60
f 61/61/61 79/79/79 80/80/80 62/62/62
f 63/63/63 81/81/81 82/82/82 64/64/64
f 65/65/65 66/66/66 67/67/67 68/68/68
f 58/58/58 83/83/83 84/84/84 57/57/57
f 69/69/69 71/71/71 72/72/72 70/70/70
g 2_Binding
usemtl New_material_002
v 6 0.9 -0.3333
v 7 0 -0.3333
v 6.852 -0.076 -0.1667
v 6.703 -0.152 0
v 5.818 0.621 0
v 4.895 1.034 0
v 5 1.35 -0.3333
v 0 1.633 -0.1667
v 0 1.8 -0.3333
v 0 1.467 0
v 6.852 -0.076 0.1667
v 7 0 0.3333
v 6 0.9 0.3333
v 7.148 0.076 0.1667
v 7.297 0.152 0
v 6.182 1.179 0
v 5 1.35 0.3333
v 5.105 1.666 0
v 0 1.633 0.1667
v 0 1.8 0.3333
v 0 1.967 0.1667
v 0 2.133 0
v 0 1.967 -0.1667
v -6 0.9 -0.3333
v -6.852 -0.076 -0.1667
v -7 0 -0.3333
v -6.703 -0.152 0
v -5.818 0.621 0
v -5 1.35 -0.3333
v -4.895 1.034 0
v -6.852 -0.076 0.1667
v -7 0 0.3333
v -6 0.9 0.3333
v -7.148 0.076 0.1667
v -7.297 0.152 0
v -6.182 1.179 0
v -5 1.35 0.3333
v -5.105 1.666 0
vt 0.5555 0.2206
vt 0.3579 0.4412
vt 0.3579 0.3267
vt 0.2975 0.3267
vt 0.3402 0.348
vt 0.2042 0.5236
vt 0.2962 0.2532
vt 0.9985 0.6702
vt 0.4993 0.7445
vt 0.9985 0.723
vt 0.1976 0.2872
vt 0.258 0.3445
vt 0.4492 0.2286
vt 0.3579 0.4412
vt 0.3579 0.4985
vt 0.6539 0.3093
vt 0.3354 0.3016
vt 0.546 0.1487
vt 0.9985 0.7847
vt 0.5776 0.8412
vt 0.1178 0.8582
vt 0.078 0.8582
vt 0.0388 0.8582
vt 0.5638 0.3694
vt 0.3579 0.3267
vt 0.3579 0.4412
vt 0.2975 0.3267
vt 0.3185 0.1648
vt 0.2962 0.2532
vt 0.2033 0.5565
vt 0.1976 0.2872
vt 0.258 0.3445
vt 0.4492 0.3568
vt 0.3579 0.4412
vt 0.3579 0.4985
vt 0.6794 0.1246
vt 0.3354 0.3016
vt 0.2395 0.0496
vn -0.1332 -0.1526 -0.9793
vn -0.002658 -0.007734 -1
vn -0.4808 -0.5422 -0.689
vn -0.6578 -0.7532 0
vn -0.5836 -0.812 -1.398e-08
vn -0.1976 -0.9803 1.412e-08
vn 0.0005726 -0.0007392 -1
vn 1.244e-09 -0.7102 -0.704
vn 0 0 -1
vn 0 -1 0
vn -0.4808 -0.5422 0.689
vn 0 0 1
vn 0.002124 -0.001543 1
vn 0.4874 0.5351 0.69
vn 0.6755 0.7373 -0.005512
vn 0.5664 0.8013 0.1925
vn 0.0005867 -0.0001987 1
vn 0.2172 0.9563 0.1958
vn 1.244e-09 -0.7102 0.704
vn 0 0 1
vn 2.489e-09 0.7101 0.7041
vn 0 1 0.003207
vn 1.867e-09 0.7097 -0.7045
vn 0.1332 -0.1526 -0.9793
vn 0.4808 -0.5422 -0.689
vn 0.002658 -0.007734 -1
vn 0.6578 -0.7532 0
vn 0.5836 -0.812 -1.398e-08
vn -0.0005726 -0.0007392 -1
vn 0.1976 -0.9803 1.412e-08
vn 0.4808 -0.5422 0.689
vn 0 0 1
vn -0.002124 -0.001543 1
vn -0.4874 0.5351 0.69
vn -0.6755 0.7373 -0.005512
vn -0.5664 0.8013 0.1925
vn -0.0005867 -0.0001987 1
vn -0.2172 0.9563 0.1958
f 91/91/91 92/92/92 93/93/93
f 94/94/94 95/95/95 93/93/93
f 91/91/91 93/93/93 95/95/95
f 95/95/95 96/96/96 97/97/97 91/91/91
f 98/98/98 97/97/97 96/96/96
f 97/97/97 98/98/98 99/99/99
f 96/96/96 100/100/100 98/98/98
f 95/95/95 94/94/94 101/101/101
f 102/102/102 103/103/103 101/101/101
f 95/95/95 101/101/101 103/103/103
f 103/103/103 102/102/102 104/104/104
f 105/105/105 106/106/106 104/104/104
f 103/103/103 104/104/104 106/106/106
f 92/92/92 91/91/91 106/106/106 105/105/105
f 103/103/103 107/107/107 96/96/96 95/95/95
f 106/106/106 108/108/108 107/107/107 103/103/103
f 91/91/91 97/97/97 108/108/108 106/106/106
f 109/109/109 96/96/96 107/107/107
f 96/96/96 109/109/109 100/100/100
f 107/107/107 110/110/110 109/109/109
f 111/111/111 107/107/107 108/108/108
f 107/107/107 111/111/111 110/110/110
f 108/108/108 112/112/112 111/111/111
f 97/97/97 113/113/113 112/112/112 108/108/108
f 97/97/97 99/99/99 113/113/113
f 114/114/114 115/115/115 116/116/116
f 117/117/117 115/115/115 118/118/118
f 114/114/114 118/118/118 115/115/115
f 118/118/118 114/114/114 119/119/119 120/120/120
f 98/98/98 120/120/120 119/119/119
f 119/119/119 99/99/99 98/98/98
f 120/120/120 98/98/98 100/100/100
f 118/118/118 121/121/121 117/117/117
f 122/122/122 121/121/121 123/123/123
f 118/118/118 123/123/123 121/121/121
f 123/123/123 124/124/124 122/122/122
f 125/125/125 124/124/124 126/126/126
f 123/123/123 126/126/126 124/124/124
f 116/116/116 125/125/125 126/126/126 114/114/114
f 123/123/123 118/118/118 120/120/120 127/127/127
f 126/126/126 123/123/123 127/127/127 128/128/128
f 114/114/114 126/126/126 128/128/128 119/119/119
f 109/109/109 127/127/127 120/120/120
f 120/120/120 100/100/100 109/109/109
f 127/127/127 109/109/109 110/110/110
f 111/111/111 128/128/128 127/127/127
f 127/127/127 110/110/110 111/111/111
f 128/128/128 111/111/111 112/112/112
f 119/119/119 128/128/128 112/112/112 113/113/113
f 119/119/119 113/113/113 99/99/99
g 1_Paper
usemtl Default
v -68 0 -96
v -68 0 -96
v -68 0 0
v -68 0 0
v -64 4 0
v -64 4 0
v -64 4 0
v -64 4 -96
v -64 4 -96
v -64 4 -96
v -1 4.05 -96
v -1 4.05 -96
v -1 4.05 0
v -1 4.05 0
v 0 1.8 0
v 0 1.8 0
v 0 1.8 0
v 0 1.8 -96
v 0 1.8 -96
v 0 1.8 -96
v -3 4.95 -96
v -3 4.95 -96
v -3 4.95 0
v -3 4.95 0
v -5 5.4 -96
v -5 5.4 -96
v -5 5.4 0
v -5 5.4 0
v -7 5.4 -96
v -7 5.4 -96
v -7 5.4 0
v -7 5.4 0
v -11 4.95 -96
v -11 4.95 -96
v -11 4.95 0
v -11 4.95 0
v -19 4 -96
v -19 4 -96
v -19 4 0
v -19 4 0
v -7 0 0
v -6 0.9 0
v -5 1.35 0
v -7 0 -96
v -6 0.9 -96
v -5 1.35 -96
v 68 0 -96
v 68 0 -96
v 64 4 -96
v 64 4 -96
v 64 4 -96
v 64 4 0
v 64 4 0
v 64 4 0
v 68 0 0
v 68 0 0
v 1 4.05 -96
v 1 4.05 -96
v 1 4.05 0
v 1 4.05 0
v 3 4.95 -96
v 3 4.95 -96
v 3 4.95 0
v 3 4.95 0
v 5 5.4 -96
v 5 5.4 -96
v 5 5.4 0
v 5 5.4 0
v 7 5.4 -96
v 7 5.4 -96
v 7 5.4 0
v 7 5.4 0
v 11 4.95 -96
v 11 4.95 -96
v 11 4.95 0
v 11 4.95 0
v 19 4 -96
v 19 4 -96
v 19 4 0
v 19 4 0
v 7 0 0
v 6 0.9 0
v 5 1.35 0
v 7 0 -96
v 6 0.9 -96
v 5 1.35 -96
vt 0 1
vt 1 1
vt 0 1
vt 1 0
vt 0.8361 0
vt 1 1
vt 0.8361 0
vt 0.8361 1
vt 1 1
vt 0.8361 1
vt 0.5 0
vt 0.0652 1
vt 0.5 0
vt 0.0652 0
vt 1 1
vt 0 0
vt 0 0
vt 1 1
vt 0 1
vt 0 1
vt 1 0.5
vt 0.1014 1
vt 1 0.5
vt 0.1014 0
vt 1 0.5
vt 0.13 1
vt 1 0.5
vt 0.13 0
vt 1 0.5
vt 0.1556 1
vt 1 0.5
vt 0.1556 0
vt 1 0.5
vt 0.2084 1
vt 1 0.5
vt 0.2084 0
vt 1 0.5
vt 0.3115 1
vt 1 0.5
vt 0.3115 0
vt 0 0.25
vt 0 0.5
vt 0.125 0
vt 0 0.5
vt 0 0.5
vt 0.125 0
vt 0 1
vt 1 1
vt 0.8361 1
vt 1 1
vt 0.8361 1
vt 0.8361 0
vt 1 1
vt 0.8361 0
vt 0 1
vt 1 0
vt 0.5 0
vt 0.0652 1
vt 0.5 0
vt 0.0652 0
vt 1 0.5
vt 0.1014 1
vt 1 0.5
vt 0.1014 0
vt 1 0.5
vt 0.13 1
vt 1 0.5
vt 0.13 0
vt 1 0.5
vt 0.1556 1
vt 1 0.5
vt 0.1556 0
vt 1 0.5
vt 0.2084 1
vt 1 0.5
vt 0.2084 0
vt 1 0.5
vt 0.3115 1
vt 1 0.5
vt 0.3115 0
vt 0 0.25
vt 0 0.5
vt 0.125 0
vt 0 0.5
vt 0 0.5
vt 0.125 0
vn 0 0 -1
vn -0.7071 0.7071 0
vn 0 0 1
vn -0.7071 0.7071 0
vn 0 1 0
vn 0 0 1
vn -0.7071 0.7071 0
vn 0 1 0
vn 0 0 -1
vn -0.7071 0.7071 0
vn 0 0 -1
vn 0.7087 0.7055 0
vn 0 0 1
vn 0.7087 0.7055 0
vn 0 0 1
vn 0.9138 0.4061 0
vn -0.9138 0.4061 0
vn 0 0 -1
vn 0.9138 0.4061 0
vn -0.9138 0.4061 0
vn 0 0 -1
vn 0.3165 0.9486 0
vn 0 0 1
vn 0.3165 0.9486 0
vn 0 0 -1
vn 0.1104 0.9939 0
vn 0 0 1
vn 0.1104 0.9939 0
vn 0 0 -1
vn -0.05599 0.9984 0
vn 0 0 1
vn -0.05599 0.9984 0
vn 0 0 -1
vn -0.1149 0.9934 0
vn 0 0 1
vn -0.1149 0.9934 0
vn 0 0 -1
vn -0.05906 0.9983 0
vn 0 0 1
vn -0.05906 0.9983 0
vn 0 0 1
vn 0 0 1
vn 0 0 1
vn 0 0 -1
vn 0 0 -1
vn 0 0 -1
vn 0 0 -1
vn 0.7071 0.7071 0
vn 0 1 0
vn 0 0 -1
vn 0.7071 0.7071 0
vn 0 1 0
vn 0 0 1
vn 0.7071 0.7071 0
vn 0 0 1
vn 0.7071 0.7071 0
vn 0 0 -1
vn -0.7087 0.7055 0
vn 0 0 1
vn -0.7087 0.7055 0
vn 0 0 -1
vn -0.3165 0.9486 0
vn 0 0 1
vn -0.3165 0.9486 0
vn 0 0 -1
vn -0.1104 0.9939 0
vn 0 0 1
vn -0.1104 0.9939 0
vn 0 0 -1
vn 0.05599 0.9984 0
vn 0 0 1
vn 0.05599 0.9984 0
vn 0 0 -1
vn 0.1149 0.9934 0
vn 0 0 1
vn 0.1149 0.9934 0
vn 0 0 -1
vn 0.05906 0.9983 0
vn 0 0 1
vn 0.05906 0.9983 0
vn 0 0 1
vn 0 0 1
vn 0 0 1
vn 0 0 -1
vn 0 0 -1
vn 0 0 -1
f 130/130/130 132/132/132 135/135/135 138/138/138
f 140/140/140 142/142/142 144/144/144 147/147/147
f 150/150/150 152/152/152 142/142/142 140/140/140
f 154/154/154 156/156/156 152/152/152 150/150/150
f 158/158/158 160/160/160 156/156/156 154/154/154
f 162/162/162 164/164/164 160/160/160 158/158/158
f 166/166/166 168/168/168 164/164/164 162/162/162
f 136/136/136 133/133/133 168/168/168 166/166/166
f 169/169/169 167/167/167 131/131/131
f 169/169/169 163/163/163 167/167/167
f 170/170/170 159/159/159 163/163/163
f 171/171/171 155/155/155 159/159/159
f 171/171/171 151/151/151 155/155/155
f 171/171/171 141/141/141 151/151/151
f 141/141/141 171/171/171 143/143/143
f 172/172/172 129/129/129 165/165/165
f 172/172/172 165/165/165 161/161/161
f 173/173/173 172/172/172 161/161/161
f 174/174/174 173/173/173 157/157/157
f 174/174/174 153/153/153 149/149/149
f 174/174/174 149/149/149 139/139/139
f 139/139/139 146/146/146 174/174/174
f 167/167/167 134/134/134 131/131/131
f 170/170/170 163/163/163 169/169/169
f 171/171/171 159/159/159 170/170/170
f 129/129/129 137/137/137 165/165/165
f 173/173/173 161/161/161 157/157/157
f 174/174/174 157/157/157 153/153/153
f 176/176/176 179/179/179 182/182/182 184/184/184
f 186/186/186 148/148/148 145/145/145 188/188/188
f 190/190/190 186/186/186 188/188/188 192/192/192
f 194/194/194 190/190/190 192/192/192 196/196/196
f 198/198/198 194/194/194 196/196/196 200/200/200
f 202/202/202 198/198/198 200/200/200 204/204/204
f 206/206/206 202/202/202 204/204/204 208/208/208
f 177/177/177 206/206/206 208/208/208 180/180/180
f 209/209/209 183/183/183 207/207/207
f 209/209/209 207/207/207 203/203/203
f 210/210/210 203/203/203 199/199/199
f 211/211/211 199/199/199 195/195/195
f 211/211/211 195/195/195 191/191/191
f 211/211/211 191/191/191 187/187/187
f 187/187/187 143/143/143 211/211/211
f 212/212/212 205/205/205 175/175/175
f 212/212/212 201/201/201 205/205/205
f 213/213/213 201/201/201 212/212/212
f 214/214/214 197/197/197 213/213/213
f 214/214/214 189/189/189 193/193/193
f 214/214/214 185/185/185 189/189/189
f 185/185/185 214/214/214 146/146/146
f 207/207/207 183/183/183 181/181/181
f 210/210/210 209/209/209 203/203/203
f 211/211/211 210/210/210 199/199/199
f 175/175/175 205/205/205 178/178/178
f 213/213/213 197/197/197 201/201/201
f 214/214/214 193/193/193 197/197/197
