# Rhino

mtllib book.mtl
g 00_Cover
usemtl Cover
v 3.004 -2.472 -98
v 3.004 -2.472 2.008
v -2.999 -2.472 -98
v -2.999 -2.472 2.008
v -4.366 -0.4714 -98
v -4.366 -0.4714 2.008
v 4.005 0.5191 2.008
v 4.005 0.5191 -98
v 4.371 -0.4714 -98
v 4.371 -0.4714 2.008
v -3.999 0.5191 -98
v -3.999 64.51 -98
v -3.999 64.51 2.008
v -3.999 0.5191 2.008
v 4.005 64.51 -98
v 4.005 64.51 2.008
v -6 64.51 2.008
v -6 1.52 2.008
v -3.999 0.5191 2.008
v -3.999 64.51 2.008
v -6.991 -0.4714 2.008
v -4.366 -0.4714 2.008
v -3.999 -4.473 2.008
v -2.999 -2.472 2.008
v 4.005 -4.473 2.008
v 3.004 -2.472 2.008
v 6.996 -0.4714 2.008
v 4.371 -0.4714 2.008
v 6.006 1.52 2.008
v 4.005 0.5191 2.008
v 6.006 64.51 2.008
v 4.005 64.51 2.008
v 6.006 64.51 -98
v 4.005 64.51 -98
v 6.006 1.52 -98
v 4.005 0.5191 -98
v 4.371 -0.4714 -98
v 6.996 -0.4714 -98
v 4.005 -4.473 -98
v -3.999 -4.473 -98
v -2.999 -2.472 -98
v 3.004 -2.472 -98
v -6.991 -0.4714 -98
v -4.366 -0.4714 -98
v -6 1.52 -98
v -3.999 0.5191 -98
v -6 64.51 -98
v -3.999 64.51 -98
v -6 64.51 2.008
v -3.999 64.51 2.008
v -3.999 64.51 -98
v -6 64.51 -98
v 4.005 64.51 2.008
v 6.006 64.51 2.008
v 6.006 64.51 -98
v 4.005 64.51 -98
v 4.005 -4.473 2.008
v 4.005 -4.473 -98
v -3.999 -4.473 2.008
v -3.999 -4.473 -98
v -6.991 -0.4714 2.008
v -6.991 -0.4714 -98
v 6.006 64.51 2.008
v 6.006 64.51 -98
v -6 64.51 -98
v -6 1.52 -98
v -6 1.52 2.008
v -6 64.51 2.008
v 6.996 -0.4714 -98
v 6.996 -0.4714 2.008
v 6.006 1.52 -98
v 6.006 1.52 2.008
v -4.366 -0.4714 -98
v -4.366 -0.4714 2.008
v 3.004 -2.472 -98
v 3.004 -2.472 2.008
v -6.991 -0.4714 2.008
v -6.991 -0.4714 -98
v -6 1.52 2.008
v -6 1.52 -98
v 6.006 1.52 2.008
v 6.006 1.52 -98
v 6.996 -0.4714 -98
v 6.996 -0.4714 2.008
v 4.005 0.5191 -98
v 4.005 0.5191 2.008
v -3.999 -4.473 2.008
v 4.005 -4.473 -98
v 4.005 -4.473 2.008
v 4.005 -4.473 -98
vt 0.3892 0
vt 0.3892 1
vt 0.3333 0
vt 0.3333 1
vt 0.4158 0
vt 0.4158 1
vt 0.02384 1
vt 0.02384 0
vt 0.3014 0
vt 0.3014 1
vt 0.4267 0
vt 0.7096 0
vt 0.7096 1
vt 0.4267 1
vt 0.3122 0
vt 0.3122 1
vt 0.7428 0
vt 0.7428 0.9131
vt 0.7619 0.9276
vt 0.7619 0
vt 0.7334 0.942
vt 0.7584 0.942
vt 0.7619 1
vt 0.7714 0.971
vt 0.8382 1
vt 0.8287 0.971
vt 0.8667 0.942
vt 0.8417 0.942
vt 0.8573 0.9131
vt 0.8382 0.9276
vt 0.8573 0
vt 0.8382 0
vt 0.8761 0
vt 0.8952 0
vt 0.8761 0.9131
vt 0.8952 0.9276
vt 0.8917 0.942
vt 0.8667 0.942
vt 0.8952 1
vt 0.9715 1
vt 0.962 0.971
vt 0.9047 0.971
vt 1 0.942
vt 0.975 0.942
vt 0.9906 0.9131
vt 0.9715 0.9276
vt 0.9906 0
vt 0.9715 0
vt 4.998e-15 1
vt 0.02384 1
vt 0.02384 0
vt 6.592e-17 0
vt 0.7096 1
vt 0.7334 1
vt 0.7334 0
vt 0.7096 0
vt 0.3333 1
vt 0.3333 0
vt 0.3892 1
vt 0.3892 0
vt 0.4158 1
vt 0.4158 0
vt 0.02384 1
vt 0.02384 0
vt 0.7096 0
vt 0.4267 0
vt 0.4267 1
vt 0.7096 1
vt 0.3122 0
vt 0.3122 1
vt 0.3014 0
vt 0.3014 1
vt 0.4158 0
vt 0.4158 1
vt 0.3892 0
vt 0.3892 1
vt 0.4158 1
vt 0.4158 0
vt 0.4267 1
vt 0.4267 0
vt 0.3014 1
vt 0.3014 0
vt 0.3123 0
vt 0.3123 1
vt 0.02384 0
vt 0.02384 1
vt 0.7619 1
vt 0.8952 1
vt 0.3333 1
vt 0.3333 0
vn -0.4659 0.8848 0
vn -0.4659 0.8848 0
vn 0.4659 0.8848 0
vn 0.4659 0.8848 0
vn 0.9925 0.1221 0
vn 0.9925 0.1221 0
vn -0.9841 -0.1775 0
vn -0.9841 -0.1775 0
vn -0.9925 0.1221 0
vn -0.9925 0.1221 0
vn 0.9841 -0.1775 0
vn 1 0 0
vn 1 0 0
vn 0.9841 -0.1775 0
vn -1 0 0
vn -1 0 0
vn 0 0 1
vn 0 0 1
vn 0 0 1
vn 0 0 1
vn 0 0 1
vn 0 0 1
vn 0 0 1
vn 0 0 1
vn 0 0 1
vn 0 0 1
vn 0 0 1
vn 0 0 1
vn 0 0 1
vn 0 0 1
vn 0 0 1
vn 0 0 1
vn 0 0 -1
vn 0 0 -1
vn 0 0 -1
vn 0 0 -1
vn 0 0 -1
vn 0 0 -1
vn 0 0 -1
vn 0 0 -1
vn 0 0 -1
vn 0 0 -1
vn 0 0 -1
vn 0 0 -1
vn 0 0 -1
vn 0 0 -1
vn 0 0 -1
vn 0 0 -1
vn 0 1 0
vn 0 1 0
vn 0 1 0
vn 0 1 0
vn 0 1 0
vn 0 1 0
vn 0 1 0
vn 0 1 0
vn 0.4472 -0.8944 0
vn 0.4472 -0.8944 0
vn -0.4472 -0.8944 0
vn -0.4472 -0.8944 0
vn -0.996 -0.08981 0
vn -0.996 -0.08981 0
vn 1 0 0
vn 1 0 0
vn -1 0 0
vn -0.9732 0.2298 0
vn -0.9732 0.2298 0
vn -1 0 0
vn 0.996 -0.08981 0
vn 0.996 -0.08981 0
vn 0.9732 0.2298 0
vn 0.9732 0.2298 0
vn 0.9925 0.1221 0
vn 0.9925 0.1221 0
vn -0.4659 0.8848 0
vn -0.4659 0.8848 0
vn -0.996 -0.08981 0
vn -0.996 -0.08981 0
vn -0.9732 0.2298 0
vn -0.9732 0.2298 0
vn 0.9732 0.2298 0
vn 0.9732 0.2298 0
vn 0.996 -0.08981 0
vn 0.996 -0.08981 0
vn -0.9841 -0.1775 0
vn -0.9841 -0.1775 0
vn 0 0 1
vn 0 0 -1
vn 0.4472 -0.8944 0
vn 0.4472 -0.8944 0
f 4/4/4 2/2/2 1/1/1 3/3/3
f 3/3/3 73/73/73 74/74/74 4/4/4
f 5/5/5 11/11/11 14/14/14 6/6/6
f 10/10/10 7/7/7 8/8/8 9/9/9
f 9/9/9 75/75/75 76/76/76 10/10/10
f 11/11/11 12/12/12 13/13/13 14/14/14
f 15/15/15 85/85/85 86/86/86 16/16/16
f 17/17/17 18/18/18 19/19/19 20/20/20
f 18/18/18 21/21/21 22/22/22 19/19/19
f 22/22/22 21/21/21 23/23/23 24/24/24
f 87/87/87 25/25/25 26/26/26 24/24/24
f 25/25/25 27/27/27 28/28/28 26/26/26
f 27/27/27 29/29/29 30/30/30 28/28/28
f 29/29/29 31/31/31 32/32/32 30/30/30
f 33/33/33 35/35/35 36/36/36 34/34/34
f 35/35/35 38/38/38 37/37/37 36/36/36
f 37/37/37 38/38/38 39/39/39 42/42/42
f 88/88/88 40/40/40 41/41/41 42/42/42
f 40/40/40 43/43/43 44/44/44 41/41/41
f 43/43/43 45/45/45 46/46/46 44/44/44
f 45/45/45 47/47/47 48/48/48 46/46/46
f 49/49/49 50/50/50 51/51/51 52/52/52
f 53/53/53 54/54/54 55/55/55 56/56/56
f 89/89/89 59/59/59 60/60/60 90/90/90
f 59/59/59 77/77/77 78/78/78 60/60/60
f 61/61/61 79/79/79 80/80/80 62/62/62
f 63/63/63 81/81/81 82/82/82 64/64/64
f 65/65/65 66/66/66 67/67/67 68/68/68
f 58/58/58 83/83/83 84/84/84 57/57/57
f 69/69/69 71/71/71 72/72/72 70/70/70
g 2_Binding
usemtl New_material_002
v 2.74 1.986 -0.3333
v 4 1.515 -0.3333
v 3.992 1.348 -0.1667
v 3.983 1.182 0
v 2.721 1.654 0
v 1.429 1.869 0
v 1.449 2.202 -0.3333
v 0 2.148 -0.1667
v 0 2.315 -0.3333
v 0 1.982 0
v 3.992 1.348 0.1667
v 4 1.515 0.3333
v 2.74 1.986 0.3333
v 4.008 1.681 0.1667
v 4.017 1.848 0
v 2.758 2.319 0
v 1.449 2.202 0.3333
v 1.468 2.535 0
v 0 2.148 0.1667
v 0 2.315 0.3333
v 0 2.482 0.1667
v 0 2.648 0
v 0 2.482 -0.1667
v -2.74 1.986 -0.3333
v -3.992 1.348 -0.1667
v -4 1.515 -0.3333
v -3.983 1.182 0
v -2.721 1.654 0
v -1.449 2.202 -0.3333
v -1.429 1.869 0
v -3.992 1.348 0.1667
v -4 1.515 0.3333
v -2.74 1.986 0.3333
v -4.008 1.681 0.1667
v -4.017 1.848 0
v -2.758 2.319 0
v -1.449 2.202 0.3333
v -1.468 2.535 0
vt 0.5555 0.2206
vt 0.3579 0.4412
vt 0.3579 0.3267
vt 0.2975 0.3267
vt 0.3402 0.348
vt 0.2042 0.5236
vt 0.2962 0.2532
vt 0.9985 0.6702
vt 0.4993 0.7445
vt 0.9985 0.723
vt 0.1976 0.2872
vt 0.258 0.3445
vt 0.4492 0.2286
vt 0.3579 0.4412
vt 0.3579 0.4985
vt 0.6539 0.3093
vt 0.3354 0.3016
vt 0.546 0.1487
vt 0.9985 0.7847
vt 0.5776 0.8412
vt 0.1178 0.8582
vt 0.078 0.8582
vt 0.0388 0.8582
vt 0.5638 0.3694
vt 0.3579 0.3267
vt 0.3579 0.4412
vt 0.2975 0.3267
vt 0.3185 0.1648
vt 0.2962 0.2532
vt 0.2033 0.5565
vt 0.1976 0.2872
vt 0.258 0.3445
vt 0.4492 0.3568
vt 0.3579 0.4412
vt 0.3579 0.4985
vt 0.6794 0.1246
vt 0.3354 0.3016
vt 0.2395 0.0496
vn -0.07119 -0.1907 -0.9791
vn 0.0002067 0.0003583 -1
vn -0.2535 -0.6779 -0.6901
vn -0.3503 -0.9366 0
vn -0.2905 -0.9569 1.387e-08
vn -0.1072 -0.9942 0
vn -8.483e-06 0.0001488 -1
vn 1.244e-09 -0.7069 -0.7073
vn 0 0 -1
vn 0 -1 0
vn -0.2535 -0.6779 0.6901
vn 0.0005159 0.00138 1
vn 0.0002284 0.0002132 1
vn 0.2535 0.6777 0.6903
vn 0.3503 0.9366 0.0007864
vn 0.2733 0.9429 0.1901
vn 2.363e-05 -6.801e-05 1
vn 0.1103 0.9745 0.1955
vn 1.244e-09 -0.7069 0.7073
vn 0 0 1
vn -6.218e-10 0.7069 0.7073
vn 0 1 -0.001281
vn 0 0.7065 -0.7077
vn 0.07119 -0.1907 -0.9791
vn 0.2535 -0.6779 -0.6901
vn -0.0002067 0.0003583 -1
vn 0.3503 -0.9366 0
vn 0.2905 -0.9569 1.387e-08
vn 8.483e-06 0.0001488 -1
vn 0.1072 -0.9942 0
vn 0.2535 -0.6779 0.6901
vn -0.0005159 0.00138 1
vn -0.0002284 0.0002132 1
vn -0.2535 0.6777 0.6903
vn -0.3503 0.9366 0.0007864
vn -0.2733 0.9429 0.1901
vn -2.363e-05 -6.801e-05 1
vn -0.1103 0.9745 0.1955
f 91/91/91 92/92/92 93/93/93
f 94/94/94 95/95/95 93/93/93
f 91/91/91 93/93/93 95/95/95
f 95/95/95 96/96/96 97/97/97 91/91/91
f 98/98/98 97/97/97 96/96/96
f 97/97/97 98/98/98 99/99/99
f 96/96/96 100/100/100 98/98/98
f 95/95/95 94/94/94 101/101/101
f 102/102/102 103/103/103 101/101/101
f 95/95/95 101/101/101 103/103/103
f 103/103/103 102/102/102 104/104/104
f 105/105/105 106/106/106 104/104/104
f 103/103/103 104/104/104 106/106/106
f 92/92/92 91/91/91 106/106/106 105/105/105
f 103/103/103 107/107/107 96/96/96 95/95/95
f 106/106/106 108/108/108 107/107/107 103/103/103
f 91/91/91 97/97/97 108/108/108 106/106/106
f 109/109/109 96/96/96 107/107/107
f 96/96/96 109/109/109 100/100/100
f 107/107/107 110/110/110 109/109/109
f 111/111/111 107/107/107 108/108/108
f 107/107/107 111/111/111 110/110/110
f 108/108/108 112/112/112 111/111/111
f 97/97/97 113/113/113 112/112/112 108/108/108
f 97/97/97 99/99/99 113/113/113
f 114/114/114 115/115/115 116/116/116
f 117/117/117 115/115/115 118/118/118
f 114/114/114 118/118/118 115/115/115
f 118/118/118 114/114/114 119/119/119 120/120/120
f 98/98/98 120/120/120 119/119/119
f 119/119/119 99/99/99 98/98/98
f 120/120/120 98/98/98 100/100/100
f 118/118/118 121/121/121 117/117/117
f 122/122/122 121/121/121 123/123/123
f 118/118/118 123/123/123 121/121/121
f 123/123/123 124/124/124 122/122/122
f 125/125/125 124/124/124 126/126/126
f 123/123/123 126/126/126 124/124/124
f 116/116/116 125/125/125 126/126/126 114/114/114
f 123/123/123 118/118/118 120/120/120 127/127/127
f 126/126/126 123/123/123 127/127/127 128/128/128
f 114/114/114 126/126/126 128/128/128 119/119/119
f 109/109/109 127/127/127 120/120/120
f 120/120/120 100/100/100 109/109/109
f 127/127/127 109/109/109 110/110/110
f 111/111/111 128/128/128 127/127/127
f 127/127/127 110/110/110 111/111/111
f 128/128/128 111/111/111 112/112/112
f 119/119/119 128/128/128 112/112/112 113/113/113
f 119/119/119 113/113/113 99/99/99
g 1_Paper
usemtl Default
v -4 62.51 -96
v -4 62.51 -96
v -4 62.51 0
v -4 62.51 0
v 0 62.51 0
v 0 62.51 0
v 0 62.51 0
v 0 62.51 0
v 0 62.51 -96
v 0 62.51 -96
v 0 62.51 -96
v 0 62.51 -96
v 0 3.515 -96
v 0 3.515 -96
v 0 3.515 -96
v 0 3.515 0
v 0 3.515 0
v 0 3.515 0
v 0 2.315 0
v 0 2.315 0
v 0 2.315 0
v 0 2.315 -96
v 0 2.315 -96
v 0 2.315 -96
v 0 4.283 -96
v 0 4.283 -96
v 0 4.283 -96
v 0 4.283 0
v 0 4.283 0
v 0 4.283 0
v 0 5.988 -96
v 0 5.988 -96
v 0 5.988 -96
v 0 5.988 0
v 0 5.988 0
v 0 5.988 0
v 0 8.584 -96
v 0 8.584 -96
v 0 8.584 -96
v 0 8.584 0
v 0 8.584 0
v 0 8.584 0
v 0 11.99 -96
v 0 11.99 -96
v 0 11.99 -96
v 0 11.99 0
v 0 11.99 0
v 0 11.99 0
v 0 19.77 -96
v 0 19.77 -96
v 0 19.77 -96
v 0 19.77 0
v 0 19.77 0
v 0 19.77 0
v -4 1.515 0
v -2.74 1.986 0
v -1.449 2.202 0
v -4 1.515 -96
v -2.74 1.986 -96
v -1.449 2.202 -96
v 4 62.51 -96
v 4 62.51 -96
v 4 62.51 0
v 4 62.51 0
v 4 1.515 0
v 2.74 1.986 0
v 1.449 2.202 0
v 4 1.515 -96
v 2.74 1.986 -96
v 1.449 2.202 -96
vt 0 1
vt 1 1
vt 0 1
vt 1 0
vt 0.8361 0
vt 0.8361 0
vt 1 1
vt 0.8361 0
vt 0.8361 1
vt 0.8361 1
vt 1 1
vt 0.8361 1
vt 0.0652 1
vt 0.0652 1
vt 0.5 0
vt 0.0652 0
vt 0.0652 0
vt 0.5 0
vt 0 0
vt 0 0
vt 1 1
vt 0 1
vt 0 1
vt 1 1
vt 0.1014 1
vt 0.1014 1
vt 1 0.5
vt 0.1014 0
vt 0.1014 0
vt 1 0.5
vt 0.13 1
vt 0.13 1
vt 1 0.5
vt 0.13 0
vt 0.13 0
vt 1 0.5
vt 0.1556 1
vt 0.1556 1
vt 1 0.5
vt 0.1556 0
vt 0.1556 0
vt 1 0.5
vt 0.2084 1
vt 0.2084 1
vt 1 0.5
vt 0.2084 0
vt 0.2084 0
vt 1 0.5
vt 0.3115 1
vt 0.3115 1
vt 1 0.5
vt 0.3115 0
vt 0.3115 0
vt 1 0.5
vt 0 0.25
vt 0 0.5
vt 0.125 0
vt 0 0.5
vt 0 0.5
vt 0.125 0
vt 0 1
vt 1 1
vt 0 1
vt 1 0
vt 0 0.25
vt 0 0.5
vt 0.125 0
vt 0 0.5
vt 0 0.5
vt 0.125 0
vn 0 0 -1
vn 0 1 0
vn 0 0 1
vn 0 1 0
vn 1 0 0
vn -1 0 0
vn 0 0 1
vn 0 1 0
vn 1 0 0
vn -1 0 0
vn 0 0 -1
vn 0 1 0
vn 1 0 0
vn -1 0 0
vn 0 0 -1
vn 1 0 0
vn -1 0 0
vn 0 0 1
vn 1 0 0
vn -1 0 0
vn 0 0 1
vn 1 0 0
vn -1 0 0
vn 0 0 -1
vn 1 0 0
vn -1 0 0
vn 0 0 -1
vn 1 0 0
vn -1 0 0
vn 0 0 1
vn 1 0 0
vn -1 0 0
vn 0 0 -1
vn 1 0 0
vn -1 0 0
vn 0 0 1
vn 1 0 0
vn -1 0 0
vn 0 0 -1
vn 1 0 0
vn -1 0 0
vn 0 0 1
vn 1 0 0
vn -1 0 0
vn 0 0 -1
vn 1 0 0
vn -1 0 0
vn 0 0 1
vn 1 0 0
vn -1 0 0
vn 0 0 -1
vn 1 0 0
vn -1 0 0
vn 0 0 1
vn 0 0 1
vn 0 0 1
vn 0 0 1
vn 0 0 -1
vn 0 0 -1
vn 0 0 -1
vn 0 0 -1
vn 0 1 0
vn 0 0 1
vn 0 1 0
vn 0 0 1
vn 0 0 1
vn 0 0 1
vn 0 0 -1
vn 0 0 -1
vn 0 0 -1
f 130/130/130 132/132/132 136/136/136 140/140/140
f 141/141/141 144/144/144 147/147/147 150/150/150
f 153/153/153 156/156/156 144/144/144 141/141/141
f 159/159/159 162/162/162 156/156/156 153/153/153
f 165/165/165 168/168/168 162/162/162 159/159/159
f 171/171/171 174/174/174 168/168/168 165/165/165
f 177/177/177 180/180/180 174/174/174 171/171/171
f 137/137/137 133/133/133 180/180/180 177/177/177
f 183/183/183 182/182/182 131/131/131
f 183/183/183 176/176/176 182/182/182
f 184/184/184 170/170/170 176/176/176
f 185/185/185 164/164/164 170/170/170
f 185/185/185 158/158/158 164/164/164
f 185/185/185 146/146/146 158/158/158
f 146/146/146 185/185/185 149/149/149
f 186/186/186 129/129/129 179/179/179
f 186/186/186 179/179/179 173/173/173
f 187/187/187 186/186/186 173/173/173
f 188/188/188 187/187/187 167/167/167
f 188/188/188 161/161/161 155/155/155
f 188/188/188 155/155/155 143/143/143
f 143/143/143 152/152/152 188/188/188
f 182/182/182 135/135/135 131/131/131
f 184/184/184 176/176/176 183/183/183
f 185/185/185 170/170/170 184/184/184
f 129/129/129 139/139/139 179/179/179
f 187/187/187 173/173/173 167/167/167
f 188/188/188 167/167/167 161/161/161
f 190/190/190 140/140/140 136/136/136 192/192/192
f 142/142/142 151/151/151 148/148/148 145/145/145
f 154/154/154 142/142/142 145/145/145 157/157/157
f 160/160/160 154/154/154 157/157/157 163/163/163
f 166/166/166 160/160/160 163/163/163 169/169/169
f 172/172/172 166/166/166 169/169/169 175/175/175
f 178/178/178 172/172/172 175/175/175 181/181/181
f 138/138/138 178/178/178 181/181/181 134/134/134
f 193/193/193 191/191/191 182/182/182
f 193/193/193 182/182/182 176/176/176
f 194/194/194 176/176/176 170/170/170
f 195/195/195 170/170/170 164/164/164
f 195/195/195 164/164/164 158/158/158
f 195/195/195 158/158/158 146/146/146
f 146/146/146 149/149/149 195/195/195
f 196/196/196 179/179/179 189/189/189
f 196/196/196 173/173/173 179/179/179
f 197/197/197 173/173/173 196/196/196
f 198/198/198 167/167/167 197/197/197
f 198/198/198 155/155/155 161/161/161
f 198/198/198 143/143/143 155/155/155
f 143/143/143 198/198/198 152/152/152
f 182/182/182 191/191/191 135/135/135
f 194/194/194 193/193/193 176/176/176
f 195/195/195 194/194/194 170/170/170
f 189/189/189 179/179/179 139/139/139
f 197/197/197 167/167/167 173/173/173
f 198/198/198 161/161/161 167/167/167
