# Rhino

mtllib book.mtl
g object_1
usemtl New material 001
v 0.4697 0.8784 0.8242
v 0.4697 -0.1312 0.8242
v 0.5303 0.8784 0.8242
v 0.5303 -0.1312 0.8242
v 0.5441 0.8784 0.804
v 0.5441 -0.1312 0.804
v 0.4596 -0.1312 0.794
v 0.4596 0.8784 0.794
v 0.4559 0.8784 0.804
v 0.4559 -0.1312 0.804
v 0.5404 0.8784 0.794
v 0.5404 0.8784 0.148
v 0.5404 -0.1312 0.148
v 0.5404 -0.1312 0.794
v 0.4596 0.8784 0.148
v 0.4596 -0.1312 0.148
v 0.5606 -0.1312 0.148
v 0.5606 -0.1312 0.7839
v 0.5404 -0.1312 0.794
v 0.5404 -0.1312 0.148
v 0.5706 -0.1312 0.804
v 0.5441 -0.1312 0.804
v 0.5404 -0.1312 0.8444
v 0.5303 -0.1312 0.8242
v 0.4596 -0.1312 0.8444
v 0.4697 -0.1312 0.8242
v 0.4294 -0.1312 0.804
v 0.4559 -0.1312 0.804
v 0.4394 -0.1312 0.7839
v 0.4596 -0.1312 0.794
v 0.4394 -0.1312 0.148
v 0.4596 -0.1312 0.148
v 0.4394 0.8784 0.148
v 0.4596 0.8784 0.148
v 0.4394 0.8784 0.7839
v 0.4596 0.8784 0.794
v 0.4559 0.8784 0.804
v 0.4294 0.8784 0.804
v 0.4596 0.8784 0.8444
v 0.5404 0.8784 0.8444
v 0.5303 0.8784 0.8242
v 0.4697 0.8784 0.8242
v 0.5706 0.8784 0.804
v 0.5441 0.8784 0.804
v 0.5606 0.8784 0.7839
v 0.5404 0.8784 0.794
v 0.5606 0.8784 0.148
v 0.5404 0.8784 0.148
v 0.5606 -0.1312 0.148
v 0.5404 -0.1312 0.148
v 0.5404 0.8784 0.148
v 0.5606 0.8784 0.148
v 0.4596 -0.1312 0.148
v 0.4394 -0.1312 0.148
v 0.4394 0.8784 0.148
v 0.4596 0.8784 0.148
v 0.4596 -0.1312 0.8444
v 0.4596 0.8784 0.8444
v 0.5404 -0.1312 0.8444
v 0.5404 0.8784 0.8444
v 0.5706 -0.1312 0.804
v 0.5706 0.8784 0.804
v 0.4394 -0.1312 0.148
v 0.4394 0.8784 0.148
v 0.5606 0.8784 0.148
v 0.5606 0.8784 0.7839
v 0.5606 -0.1312 0.7839
v 0.5606 -0.1312 0.148
v 0.4294 0.8784 0.804
v 0.4294 -0.1312 0.804
v 0.4394 0.8784 0.7839
v 0.4394 -0.1312 0.7839
vt 0.663 0.6942
vt 0.4393 0.5971
vt 0.663 0.2201
vt 0.4093 0.1297
vt 0.326 0.4112
vt 0.7271 0.2842
vt 0.7609 0.2207
vt 0.6004 0.4582
vt 0.606 0.4214
vt 0.8607 0.1756
vt 0.326 0.1702
vt 0.326 0.3558
vt 0.6847 0.2455
vt 0.7165 0.06383
vt 0.163 0.4679
vt 0.639 0.2639
vt 0 0
vt 0 0.5
vt 1 0.5
vt 1 0
vt 0 1
vt 0.5 0.5
vt 0.5 0.5
vt 1 0
vt 0 0.5
vt 1 0.5
vt 0 0.5
vt 1 0.5
vt 0 0.5
vt 1 0.5
vt 0 1
vt 1 1
vt 0 0
vt 1 0
vt 0 0.5
vt 1 0.5
vt 0.5 0.5
vt 0 1
vt 0.5 0.5
vt 0 0.5
vt 1 0.5
vt 1 0
vt 0 0.5
vt 1 0.5
vt 0 0.5
vt 1 0.5
vt 0 1
vt 1 1
vt 0.8351 0.2216
vt 0.878 0.1779
vt 0.9206 0.4915
vt 0.9289 0.4915
vt 0.7987 0.1319
vt 0.8752 0.3478
vt 0.9501 0.4915
vt 0.9584 0.4915
vt 0.7317 0.2818
vt 0.477 0.5275
vt 0.5871 0.3863
vt 0.3388 0.806
vt 0.7197 0.2765
vt 0.6039 0.6488
vt 0.8752 0.3478
vt 0.3702 0.9373
vt 0.4865 0.6972
vt 0.754 0.5769
vt 0.7331 0.1807
vt 0.4175 0.2681
vt 0.326 0.3666
vt 0.8681 0.1833
vt 0.3481 0.6529
vt 0.7977 0.4202
vn 0.4659 0 -0.8848
vn 0.4659 0 -0.8848
vn -0.4659 0 -0.8848
vn -0.4659 0 -0.8848
vn -0.9925 0 -0.1221
vn -0.9925 0 -0.1221
vn 0.9841 0 0.1775
vn 0.9841 0 0.1775
vn 0.9925 0 -0.1221
vn 0.9925 0 -0.1221
vn -0.9841 0 0.1775
vn -1 0 0
vn -1 0 0
vn -0.9841 0 0.1775
vn 1 0 0
vn 1 0 0
vn 0 -1 0
vn 0 -1 0
vn 0 -1 0
vn 0 -1 0
vn 0 -1 0
vn 0 -1 0
vn 0 -1 0
vn 0 -1 0
vn 0 -1 0
vn 0 -1 0
vn 0 -1 0
vn 0 -1 0
vn 0 -1 0
vn 0 -1 0
vn 0 -1 0
vn 0 -1 0
vn 0 1 0
vn 0 1 0
vn 0 1 0
vn 0 1 0
vn 0 1 0
vn 0 1 0
vn 0 1 0
vn 0 1 0
vn 0 1 0
vn 0 1 0
vn 0 1 0
vn 0 1 0
vn 0 1 0
vn 0 1 0
vn 0 1 0
vn 0 1 0
vn 0 0 -1
vn 0 0 -1
vn 0 0 -1
vn 0 0 -1
vn 0 0 -1
vn 0 0 -1
vn 0 0 -1
vn 0 0 -1
vn -0.4472 0 0.8944
vn -0.4472 0 0.8944
vn 0.4472 0 0.8944
vn 0.4472 0 0.8944
vn 0.996 0 0.08981
vn 0.996 0 0.08981
vn -1 0 0
vn -1 0 0
vn 1 0 0
vn 0.9732 0 -0.2298
vn 0.9732 0 -0.2298
vn 1 0 0
vn -0.996 0 0.08981
vn -0.996 0 0.08981
vn -0.9732 0 -0.2298
vn -0.9732 0 -0.2298
f 4/4/4 2/2/2 1/1/1 3/3/3
f 3/3/3 5/5/5 6/6/6 4/4/4
f 5/5/5 11/11/11 14/14/14 6/6/6
f 10/10/10 7/7/7 8/8/8 9/9/9
f 9/9/9 1/1/1 2/2/2 10/10/10
f 11/11/11 12/12/12 13/13/13 14/14/14
f 15/15/15 8/8/8 7/7/7 16/16/16
f 17/17/17 18/18/18 19/19/19 20/20/20
f 18/18/18 21/21/21 22/22/22 19/19/19
f 22/22/22 21/21/21 23/23/23 24/24/24
f 23/23/23 25/25/25 26/26/26 24/24/24
f 25/25/25 27/27/27 28/28/28 26/26/26
f 27/27/27 29/29/29 30/30/30 28/28/28
f 29/29/29 31/31/31 32/32/32 30/30/30
f 33/33/33 35/35/35 36/36/36 34/34/34
f 35/35/35 38/38/38 37/37/37 36/36/36
f 37/37/37 38/38/38 39/39/39 42/42/42
f 39/39/39 40/40/40 41/41/41 42/42/42
f 40/40/40 43/43/43 44/44/44 41/41/41
f 43/43/43 45/45/45 46/46/46 44/44/44
f 45/45/45 47/47/47 48/48/48 46/46/46
f 49/49/49 50/50/50 51/51/51 52/52/52
f 53/53/53 54/54/54 55/55/55 56/56/56
f 57/57/57 59/59/59 60/60/60 58/58/58
f 59/59/59 61/61/61 62/62/62 60/60/60
f 61/61/61 67/67/67 66/66/66 62/62/62
f 63/63/63 72/72/72 71/71/71 64/64/64
f 65/65/65 66/66/66 67/67/67 68/68/68
f 58/58/58 69/69/69 70/70/70 57/57/57
f 69/69/69 71/71/71 72/72/72 70/70/70
g object_2
usemtl Default
v 0.5 -0.111 0.1682
v 0.4596 -0.111 0.1682
v 0.4596 0.858 0.1682
v 0.5 -0.111 0.7758
v 0.5 -0.111 0.7637
v 0.5 0.858 0.7637
v 0.5 -0.111 0.7535
v 0.5 0.858 0.7535
v 0.5 -0.111 0.7435
v 0.5 0.858 0.7435
v 0.5 -0.111 0.7334
v 0.5 0.858 0.7334
v 0.5 -0.111 0.7233
v 0.5 0.858 0.7233
v 0.5 -0.111 0.6627
v 0.5 0.858 0.6627
v 0.5 -0.111 0.1682
v 0.5 0.858 0.1682
v 0.4596 -0.111 0.7839
v 0.5 -0.111 0.6627
v 0.4596 -0.111 0.1682
v 0.5 -0.111 0.7233
v 0.4724 -0.111 0.7791
v 0.5 -0.111 0.7334
v 0.4853 -0.111 0.7769
v 0.5 -0.111 0.7435
v 0.5 -0.111 0.7535
v 0.5 -0.111 0.7637
v 0.5 -0.111 0.7758
v 0.4596 0.858 0.7839
v 0.4596 0.858 0.1682
v 0.5 0.858 0.6627
v 0.5 0.858 0.7233
v 0.4724 0.858 0.7791
v 0.4853 0.858 0.7769
v 0.5 0.858 0.7334
v 0.5 0.858 0.7435
v 0.5 0.858 0.7535
v 0.5 0.858 0.7637
v 0.5 0.858 0.7758
v 0.4853 0.858 0.7769
v 0.5 0.858 0.7758
v 0.5 -0.111 0.7758
v 0.4724 0.858 0.7791
v 0.4853 -0.111 0.7769
v 0.4596 0.858 0.7839
v 0.4724 -0.111 0.7791
v 0.5 0.858 0.1682
v 0.5 0.858 0.7758
v 0.5 -0.111 0.1682
v 0.5 0.858 0.1682
v 0.4596 -0.111 0.7839
v 0.5 -0.111 0.1682
v 0.5404 -0.111 0.1682
v 0.5404 0.858 0.1682
v 0.5 -0.111 0.7758
v 0.5 -0.111 0.7637
v 0.5 0.858 0.7637
v 0.5 -0.111 0.7535
v 0.5 0.858 0.7535
v 0.5 -0.111 0.7435
v 0.5 0.858 0.7435
v 0.5 -0.111 0.7334
v 0.5 0.858 0.7334
v 0.5 -0.111 0.7233
v 0.5 0.858 0.7233
v 0.5 -0.111 0.6627
v 0.5 0.858 0.6627
v 0.5 -0.111 0.1682
v 0.5 0.858 0.1682
v 0.5404 -0.111 0.7839
v 0.5 -0.111 0.6627
v 0.5404 -0.111 0.1682
v 0.5 -0.111 0.7233
v 0.5276 -0.111 0.7791
v 0.5 -0.111 0.7334
v 0.5147 -0.111 0.7769
v 0.5 -0.111 0.7435
v 0.5 -0.111 0.7535
v 0.5 -0.111 0.7637
v 0.5 -0.111 0.7758
v 0.5404 0.858 0.7839
v 0.5404 0.858 0.1682
v 0.5 0.858 0.6627
v 0.5 0.858 0.7233
v 0.5276 0.858 0.7791
v 0.5147 0.858 0.7769
v 0.5 0.858 0.7334
v 0.5 0.858 0.7435
v 0.5 0.858 0.7535
v 0.5 0.858 0.7637
v 0.5 0.858 0.7758
v 0.5147 0.858 0.7769
v 0.5 0.858 0.7758
v 0.5 -0.111 0.7758
v 0.5276 0.858 0.7791
v 0.5147 -0.111 0.7769
v 0.5404 0.858 0.7839
v 0.5276 -0.111 0.7791
v 0.5 0.858 0.1682
v 0.5 0.858 0.7758
v 0.5 -0.111 0.1682
v 0.5 0.858 0.1682
v 0.5404 -0.111 0.7839
vt 0.8361 0
vt 1 0
vt 1 1
vt 0 0
vt 0.06524 0
vt 0.06524 1
vt 0.1014 0
vt 0.1014 1
vt 0.13 0
vt 0.13 1
vt 0.1556 0
vt 0.1556 1
vt 0.2084 0
vt 0.2084 1
vt 0.3115 0
vt 0.3115 1
vt 0.8361 0
vt 0.8361 1
vt 0 0.25
vt 1 0.5
vt 0 1
vt 1 0.5
vt 0 0.5
vt 1 0.5
vt 0.125 0
vt 1 0.5
vt 1 0.5
vt 0.5 0
vt 1 1
vt 0 0.5
vt 0 1
vt 1 0.5
vt 1 0.5
vt 0 0.5
vt 0.125 0
vt 1 0.5
vt 1 0.5
vt 1 0.5
vt 0.5 0
vt 1 1
vt 0.5 0
vt 1 0
vt 1 1
vt 0.5 0
vt 0.5 1
vt 0 0
vt 0.5 1
vt 0.8361 1
vt 0 1
vt 1 1
vt 1 1
vt 0 1
vt 0.8361 0
vt 1 0
vt 1 1
vt 0 0
vt 0.06524 0
vt 0.06524 1
vt 0.1014 0
vt 0.1014 1
vt 0.13 0
vt 0.13 1
vt 0.1556 0
vt 0.1556 1
vt 0.2084 0
vt 0.2084 1
vt 0.3115 0
vt 0.3115 1
vt 0.8361 0
vt 0.8361 1
vt 0 0.25
vt 1 0.5
vt 0 1
vt 1 0.5
vt 0 0.5
vt 1 0.5
vt 0.125 0
vt 1 0.5
vt 1 0.5
vt 0.5 0
vt 1 1
vt 0 0.5
vt 0 1
vt 1 0.5
vt 1 0.5
vt 0 0.5
vt 0.125 0
vt 1 0.5
vt 1 0.5
vt 1 0.5
vt 0.5 0
vt 1 1
vt 0.5 0
vt 1 0
vt 1 1
vt 0.5 0
vt 0.5 1
vt 0 0
vt 0.5 1
vt 0.8361 1
vt 0 1
vt 1 1
vt 1 1
vt 0 1
vn 0 0 -1
vn 0 0 -1
vn 0 0 -1
vn 1 0 0
vn 1 0 0
vn 1 0 0
vn 1 0 0
vn 1 0 0
vn 1 0 0
vn 1 0 0
vn 1 0 0
vn 1 0 0
vn 1 0 0
vn 1 0 0
vn 1 0 0
vn 1 0 0
vn 1 0 0
vn 1 0 0
vn 0 -1 0
vn 0 -1 0
vn 0 -1 0
vn 0 -1 0
vn 0 -1 0
vn 0 -1 0
vn 0 -1 0
vn 0 -1 0
vn 0 -1 0
vn 0 -1 0
vn 0 -1 0
vn 0 1 0
vn 0 1 0
vn 0 1 0
vn 0 1 0
vn 0 1 0
vn 0 1 0
vn 0 1 0
vn 0 1 0
vn 0 1 0
vn 0 1 0
vn 0 1 0
vn 0.1213 0 0.9926
vn 0.07763 0 0.997
vn 0.7263 0 0.6874
vn 0.2017 0 0.9794
vn 0.1213 0 0.9926
vn 0.3504 0 0.9366
vn 0.2588 0 0.9659
vn 0 0 -1
vn 1 0 0
vn 0 -1 0
vn 0 1 0
vn 0.3504 0 0.9366
vn 0 0 -1
vn 0 0 -1
vn 0 0 -1
vn -1 0 0
vn -1 0 0
vn -1 0 0
vn -1 0 0
vn -1 0 0
vn -1 0 0
vn -1 0 0
vn -1 0 0
vn -1 0 0
vn -1 0 0
vn -1 0 0
vn -1 0 0
vn -1 0 0
vn -1 0 0
vn -1 0 0
vn 0 -1 0
vn 0 -1 0
vn 0 -1 0
vn 0 -1 0
vn 0 -1 0
vn 0 -1 0
vn 0 -1 0
vn 0 -1 0
vn 0 -1 0
vn 0 -1 0
vn 0 -1 0
vn 0 1 0
vn 0 1 0
vn 0 1 0
vn 0 1 0
vn 0 1 0
vn 0 1 0
vn 0 1 0
vn 0 1 0
vn 0 1 0
vn 0 1 0
vn 0 1 0
vn -0.1213 0 0.9926
vn -0.07763 0 0.997
vn -0.7263 0 0.6874
vn -0.2017 0 0.9794
vn -0.1213 0 0.9926
vn -0.3504 0 0.9366
vn -0.2588 0 0.9659
vn 0 0 -1
vn -1 0 0
vn 0 -1 0
vn 0 1 0
vn -0.3504 0 0.9366
f 75/75/75 120/120/120 73/73/73 74/74/74
f 78/78/78 121/121/121 76/76/76 77/77/77
f 80/80/80 78/78/78 77/77/77 79/79/79
f 82/82/82 80/80/80 79/79/79 81/81/81
f 84/84/84 82/82/82 81/81/81 83/83/83
f 86/86/86 84/84/84 83/83/83 85/85/85
f 88/88/88 86/86/86 85/85/85 87/87/87
f 90/90/90 88/88/88 87/87/87 89/89/89
f 91/91/91 93/93/93 92/92/92
f 91/91/91 92/92/92 94/94/94
f 95/95/95 94/94/94 96/96/96
f 97/97/97 96/96/96 98/98/98
f 97/97/97 98/98/98 99/99/99
f 97/97/97 99/99/99 100/100/100
f 100/100/100 101/101/101 97/97/97
f 102/102/102 104/104/104 103/103/103
f 102/102/102 105/105/105 104/104/104
f 106/106/106 105/105/105 102/102/102
f 107/107/107 108/108/108 106/106/106
f 107/107/107 110/110/110 109/109/109
f 107/107/107 111/111/111 110/110/110
f 111/111/111 107/107/107 112/112/112
f 115/115/115 114/114/114 113/113/113 117/117/117
f 117/117/117 113/113/113 116/116/116 119/119/119
f 119/119/119 116/116/116 118/118/118 124/124/124
f 92/92/92 93/93/93 122/122/122
f 95/95/95 91/91/91 94/94/94
f 97/97/97 95/95/95 96/96/96
f 103/103/103 104/104/104 123/123/123
f 106/106/106 108/108/108 105/105/105
f 107/107/107 109/109/109 108/108/108
f 127/127/127 126/126/126 125/125/125 172/172/172
f 130/130/130 129/129/129 128/128/128 173/173/173
f 132/132/132 131/131/131 129/129/129 130/130/130
f 134/134/134 133/133/133 131/131/131 132/132/132
f 136/136/136 135/135/135 133/133/133 134/134/134
f 138/138/138 137/137/137 135/135/135 136/136/136
f 140/140/140 139/139/139 137/137/137 138/138/138
f 142/142/142 141/141/141 139/139/139 140/140/140
f 143/143/143 144/144/144 145/145/145
f 143/143/143 146/146/146 144/144/144
f 147/147/147 148/148/148 146/146/146
f 149/149/149 150/150/150 148/148/148
f 149/149/149 151/151/151 150/150/150
f 149/149/149 152/152/152 151/151/151
f 152/152/152 149/149/149 153/153/153
f 154/154/154 155/155/155 156/156/156
f 154/154/154 156/156/156 157/157/157
f 158/158/158 154/154/154 157/157/157
f 159/159/159 158/158/158 160/160/160
f 159/159/159 161/161/161 162/162/162
f 159/159/159 162/162/162 163/163/163
f 163/163/163 164/164/164 159/159/159
f 167/167/167 169/169/169 165/165/165 166/166/166
f 169/169/169 171/171/171 168/168/168 165/165/165
f 171/171/171 176/176/176 170/170/170 168/168/168
f 144/144/144 174/174/174 145/145/145
f 147/147/147 146/146/146 143/143/143
f 149/149/149 148/148/148 147/147/147
f 155/155/155 175/175/175 156/156/156
f 158/158/158 157/157/157 160/160/160
f 159/159/159 160/160/160 161/161/161
